<svg width="43" height="52" viewBox="0 0 43 52" fill="none" xmlns="http://www.w3.org/2000/svg">
<path d="M17.7057 35.4636C17.1893 35.5927 16.802 35.7218 16.4147 35.98C15.8983 35.2054 15.511 34.3017 14.9946 33.6562C14.0909 32.3652 13.0581 31.2033 12.1544 29.9124C10.7343 27.9759 9.57246 26.0394 9.05607 23.5865C7.89418 17.5189 11.2507 11.5803 17.0602 9.25657C24.677 6.1582 33.4557 11.3221 34.6176 19.4554C35.134 23.1992 33.9721 26.2976 31.9065 29.2669C31.0028 30.5578 29.8409 31.8488 28.9372 33.2689C28.2918 34.1726 27.9045 35.0763 27.259 35.98C27.0008 36.3673 26.7426 36.7546 26.3553 36.8837C23.386 38.0456 20.4167 39.0784 17.4475 40.1111C17.0602 40.2402 16.802 40.1111 16.6729 39.8529C16.5438 39.4657 16.5438 39.0784 16.9311 38.9493C17.1893 38.8202 17.4475 38.6911 17.7057 38.6911C20.2876 37.7874 22.8696 36.8837 25.4516 35.8509C25.7098 35.7218 25.968 35.4636 26.0971 35.2054C27.1299 33.2689 28.4209 31.7197 29.7118 29.9124C31.0028 28.2341 32.1647 26.6849 32.6811 24.6193C33.9721 20.4882 33.0684 16.8734 30.2282 13.775C27.0008 10.1603 22.8696 8.99837 18.2221 10.4185C13.5745 11.8385 10.9925 15.066 10.0888 19.8427C9.44335 23.1992 10.6052 26.0394 12.5417 28.6214C13.7036 30.1705 14.8655 31.7197 16.0274 33.2689C16.802 33.7853 17.1893 34.5599 17.7057 35.4636Z" fill="#2BB79D"/>
<path d="M17.0598 48.2441C16.9307 48.115 16.6725 47.9859 16.6725 47.7277C16.6725 47.4695 16.8016 47.2113 16.9307 46.9531C16.9307 46.824 17.1889 46.824 17.318 46.824C20.1582 45.7912 23.1275 44.7584 25.9676 43.7256C26.6131 43.4674 26.8713 43.5965 27.0004 43.9838C27.1295 44.3711 26.8713 44.7584 26.3549 45.0166C23.3856 46.0494 20.5455 47.0822 17.5762 48.2441C17.4471 48.115 17.318 48.115 17.0598 48.2441Z" fill="#2BB79D"/>
<path d="M17.0598 43.9838C16.9307 43.8547 16.6725 43.7256 16.6725 43.4674C16.6725 43.2092 16.8016 42.951 16.9307 42.6928C16.9307 42.5638 17.1889 42.5638 17.318 42.5638C20.1582 41.531 23.1275 40.4982 25.9676 39.4654C26.6131 39.2072 26.8713 39.3363 27.0004 39.7236C27.1295 40.1109 27.0004 40.4982 26.3549 40.7564C23.3856 41.7892 20.5455 42.951 17.5762 43.9838C17.4471 43.9838 17.318 43.9838 17.0598 43.9838Z" fill="#2BB79D"/>
<path d="M26.3562 47.5986C25.4525 50.697 20.4177 52.5044 17.3193 50.8261C20.2886 49.7933 23.2578 48.6314 26.3562 47.5986Z" fill="#2BB79D"/>
<path d="M22.4815 2.41411C22.4815 2.9305 22.4815 3.4469 22.4815 3.96329C22.4815 4.35059 22.2233 4.60878 21.836 4.60878C21.4487 4.60878 21.1905 4.35059 21.1905 3.96329C21.1905 2.9305 21.1905 1.89771 21.1905 0.735825C21.1905 0.348529 21.4487 0.090332 21.836 0.090332C22.2233 0.090332 22.4815 0.348529 22.4815 0.735825C22.4815 1.25222 22.4815 1.89771 22.4815 2.41411Z" fill="#2BB79D"/>
<path d="M2.98834 20.4878C3.50474 20.4878 4.02115 20.4878 4.53754 20.4878C5.05393 20.4878 5.31214 20.746 5.31214 21.1333C5.31214 21.5206 5.05393 21.7788 4.53754 21.7788C3.50475 21.7788 2.47197 21.7788 1.43918 21.7788C0.922786 21.7788 0.664581 21.5206 0.664581 21.1333C0.664581 20.746 0.922786 20.4878 1.43918 20.4878C1.95558 20.4878 2.47195 20.4878 2.98834 20.4878Z" fill="#2BB79D"/>
<path d="M40.6848 21.9082C40.1684 21.9082 39.652 21.9082 39.1356 21.9082C38.7483 21.9082 38.4901 21.65 38.4901 21.2627C38.4901 20.8754 38.7483 20.6172 39.1356 20.6172C40.1684 20.6172 41.3303 20.6172 42.363 20.6172C42.7503 20.6172 43.0085 20.8754 43.0085 21.2627C43.0085 21.65 42.7503 21.9082 42.363 21.9082C41.7175 21.9082 41.2012 21.9082 40.6848 21.9082Z" fill="#2BB79D"/>
<path d="M7.11803 5.77051C7.37623 5.89961 7.50532 6.0287 7.63442 6.1578C8.40901 6.9324 9.05452 7.57789 9.82911 8.35248C10.2164 8.73978 10.2164 8.99797 9.82911 9.38527C9.57091 9.64347 9.1836 9.64347 8.7963 9.38527C8.02171 8.61068 7.24714 7.96518 6.60165 7.19059C6.47255 7.06149 6.34344 6.6742 6.47254 6.416C6.60164 6.02871 6.98893 5.89961 7.11803 5.77051Z" fill="#2BB79D"/>
<path d="M34.1006 32.7524C34.3588 32.8815 34.4879 33.0106 34.617 33.1397C35.3916 33.7852 36.0371 34.5598 36.8117 35.2053C37.199 35.5926 37.199 35.9799 36.9408 36.2381C36.6826 36.4963 36.2953 36.4963 35.908 36.109C35.1334 35.3344 34.4879 34.6889 33.7133 33.9143C33.5842 33.7852 33.4551 33.3979 33.5842 33.1397C33.5842 33.0106 33.8424 32.8815 34.1006 32.7524Z" fill="#2BB79D"/>
<path d="M37.1984 6.54516C37.0693 6.80336 36.9402 6.93245 36.8111 7.06155C36.0365 7.83615 35.391 8.48164 34.6164 9.25623C34.3582 9.51443 33.971 9.64353 33.5837 9.25623C33.3255 8.99803 33.3255 8.61074 33.5837 8.22344C34.3583 7.44885 35.0037 6.67426 35.7783 6.02876C35.9074 5.89967 36.2947 5.77057 36.5529 5.89967C36.8111 6.02876 36.9402 6.41606 37.1984 6.54516Z" fill="#2BB79D"/>
<path d="M7.11838 36.4964C6.98928 36.3673 6.73109 36.2382 6.60199 35.98C6.4729 35.8509 6.60199 35.4636 6.60199 35.3345C7.37659 34.5599 8.15117 33.6562 9.05486 32.8816C9.31306 32.6234 9.70033 32.6234 9.95853 32.8816C10.2167 33.1398 10.2167 33.5271 9.95853 33.7853C9.18393 34.5599 8.40936 35.3345 7.63477 36.1091C7.50567 36.3673 7.37658 36.4964 7.11838 36.4964Z" fill="#2BB79D"/>
</svg>
