<svg width="322" height="322" viewBox="0 0 322 322" fill="none" xmlns="http://www.w3.org/2000/svg">
<path d="M70.0399 279.517C46.5863 261.527 28.994 236.986 19.4878 208.997C9.98157 181.009 8.98835 150.83 16.6337 122.277C24.2791 93.7244 40.2197 68.0798 62.4397 48.5865C84.6598 29.0932 112.161 16.6267 141.466 12.7634L161 160.933L70.0399 279.517Z" fill="#D4AF37"/>
<path d="M281.639 75.575C298.402 99.6675 307.7 128.163 308.373 157.505C309.046 186.848 301.065 215.74 285.424 240.576L158.961 160.933L281.639 75.575Z" fill="#FD853A"/>
<path d="M299.214 243.446C287.293 263.386 271.193 280.51 252.02 293.641C232.847 306.773 211.057 315.6 188.146 319.516C165.235 323.432 141.747 322.345 119.297 316.329C96.8467 310.312 75.9663 299.509 58.0908 284.663L161 160.933L299.214 243.446Z" fill="#F8F4EB"/>
<path d="M135.099 9.3772C166.73 3.97121 199.259 8.5975 228.129 22.6077C256.999 36.618 280.762 59.3099 296.087 87.5035L161.001 160.934L135.099 9.3772Z" fill="#FEC248"/>
<path d="M56.9312 118.527L55.2652 114.451L53.6297 118.517H53.4565L51.0823 111.409H52.4885L53.7265 115.531L55.2092 111.409H55.3824L56.8854 115.516L58.0521 111.409H59.4481L57.0943 118.527H56.9312ZM59.7486 118.512V113.437H60.9L60.9612 114.334C61.0155 114.201 61.0987 114.06 61.2108 113.911C61.3263 113.762 61.4843 113.636 61.6847 113.534C61.8885 113.429 62.15 113.376 62.4693 113.376C62.5678 113.376 62.6544 113.383 62.7291 113.396C62.8038 113.41 62.8735 113.43 62.938 113.458L62.6527 114.792C62.544 114.684 62.3776 114.629 62.1534 114.629C61.8919 114.629 61.6779 114.684 61.5114 114.792C61.345 114.898 61.221 115.017 61.1395 115.149C61.0614 115.282 61.0223 115.383 61.0223 115.455V118.512H59.7486ZM63.5302 112.612V111.257H64.9568V112.612H63.5302ZM63.5812 118.512V113.437H64.9059V118.512H63.5812ZM66.1085 118.512V113.437H67.2905L67.316 114.105C67.4485 113.901 67.6336 113.719 67.8713 113.559C68.1091 113.396 68.4216 113.315 68.8088 113.315C69.3251 113.315 69.7089 113.478 69.9603 113.804C70.2116 114.13 70.3373 114.582 70.3373 115.159V118.512H69.033V115.271C69.033 114.989 68.9736 114.762 68.8547 114.589C68.7358 114.412 68.5541 114.324 68.3095 114.324C68.0717 114.324 67.8629 114.412 67.6828 114.589C67.5028 114.762 67.4128 114.989 67.4128 115.271V118.512H66.1085ZM71.5029 118.512V110.767H72.7053V114.568L72.6646 115.76L74.2236 113.437H75.6706L73.8975 115.771L75.8438 118.512H74.3051L72.6646 116.056L72.7053 117.299V118.512H71.5029ZM76.6372 118.512V110.767H77.8804V118.512H76.6372ZM81.2923 118.644C80.7217 118.644 80.2614 118.525 79.9116 118.288C79.5617 118.046 79.307 117.729 79.1473 117.335C78.9877 116.937 78.9079 116.504 78.9079 116.036C78.9079 115.543 78.9979 115.091 79.1779 114.68C79.3613 114.266 79.6279 113.935 79.9778 113.687C80.331 113.439 80.7624 113.315 81.2719 113.315C82.0328 113.315 82.5643 113.536 82.8666 113.977C83.1689 114.415 83.3201 115.037 83.3201 115.842C83.3201 115.913 83.3184 116.003 83.315 116.112C83.3116 116.221 83.3065 116.314 83.2997 116.392H80.2427C80.2631 116.793 80.3752 117.107 80.579 117.335C80.7862 117.562 81.0953 117.676 81.5063 117.676C81.7169 117.676 81.9427 117.63 82.1839 117.539C82.4251 117.443 82.6034 117.33 82.7189 117.197L83.1265 118.165C82.9906 118.257 82.7749 118.361 82.4794 118.476C82.1873 118.588 81.7916 118.644 81.2923 118.644ZM80.2325 115.597H82.026C82.026 115.241 81.9937 114.969 81.9292 114.782C81.868 114.592 81.7831 114.461 81.6744 114.39C81.5657 114.319 81.4417 114.283 81.3025 114.283C80.956 114.283 80.6962 114.412 80.523 114.67C80.3497 114.925 80.2529 115.234 80.2325 115.597ZM91.1305 118.512H89.551L87.727 115.944V118.512H86.4329V111.409H88.4098C88.8921 111.409 89.3234 111.481 89.7039 111.623C90.0843 111.763 90.3849 111.997 90.6057 112.326C90.8265 112.656 90.9368 113.104 90.9368 113.672C90.9368 113.981 90.8842 114.3 90.7789 114.629C90.677 114.955 90.5055 115.248 90.2643 115.506C90.0266 115.764 89.7039 115.944 89.2963 116.046L91.1305 118.512ZM87.727 115.302H88.2671C88.566 115.302 88.8157 115.232 89.0161 115.093C89.2199 114.95 89.3727 114.765 89.4746 114.538C89.5799 114.307 89.6325 114.059 89.6325 113.794C89.6325 113.335 89.5272 112.994 89.3167 112.77C89.1061 112.542 88.746 112.428 88.2365 112.428H87.727V115.302ZM94.0893 118.644C93.5187 118.644 93.0585 118.525 92.7086 118.288C92.3588 118.046 92.104 117.729 91.9444 117.335C91.7847 116.937 91.7049 116.504 91.7049 116.036C91.7049 115.543 91.7949 115.091 91.9749 114.68C92.1584 114.266 92.425 113.935 92.7748 113.687C93.1281 113.439 93.5595 113.315 94.069 113.315C94.8298 113.315 95.3614 113.536 95.6637 113.977C95.966 114.415 96.1171 115.037 96.1171 115.842C96.1171 115.913 96.1154 116.003 96.112 116.112C96.1086 116.221 96.1035 116.314 96.0967 116.392H93.0398C93.0602 116.793 93.1722 117.107 93.376 117.335C93.5832 117.562 93.8923 117.676 94.3033 117.676C94.5139 117.676 94.7398 117.63 94.981 117.539C95.2221 117.443 95.4004 117.33 95.5159 117.197L95.9235 118.165C95.7876 118.257 95.572 118.361 95.2765 118.476C94.9843 118.588 94.5886 118.644 94.0893 118.644ZM93.0296 115.597H94.823C94.823 115.241 94.7907 114.969 94.7262 114.782C94.6651 114.592 94.5801 114.461 94.4715 114.39C94.3628 114.319 94.2388 114.283 94.0995 114.283C93.7531 114.283 93.4932 114.412 93.32 114.67C93.1468 114.925 93.05 115.234 93.0296 115.597ZM98.9968 118.654C98.5858 118.654 98.2292 118.544 97.9269 118.323C97.6246 118.102 97.3902 117.792 97.2238 117.391C97.0607 116.99 96.9792 116.521 96.9792 115.985C96.9792 115.149 97.149 114.495 97.4887 114.023C97.8318 113.551 98.3412 113.315 99.0172 113.315C99.3636 113.315 99.6557 113.401 99.8935 113.575C100.135 113.745 100.291 113.991 100.362 114.313L100.271 113.57V110.767H101.473V118.512H100.362V117.472C100.271 117.822 100.109 118.108 99.8782 118.328C99.6473 118.546 99.3534 118.654 98.9968 118.654ZM99.2923 117.646C99.5369 117.646 99.7559 117.518 99.9496 117.263C100.143 117.005 100.24 116.586 100.24 116.005C100.24 115.475 100.165 115.066 100.016 114.777C99.8663 114.488 99.6354 114.344 99.3229 114.344C99.1632 114.344 99.0036 114.393 98.844 114.492C98.6877 114.59 98.5569 114.76 98.4516 115.001C98.3463 115.239 98.2937 115.567 98.2937 115.985C98.2937 116.545 98.3905 116.963 98.5841 117.238C98.7777 117.51 99.0138 117.646 99.2923 117.646ZM104.136 118.634C103.623 118.634 103.244 118.471 103 118.145C102.758 117.815 102.638 117.364 102.638 116.79V113.437H103.912V116.678C103.912 116.956 103.963 117.184 104.064 117.36C104.166 117.537 104.34 117.625 104.584 117.625C104.825 117.625 105.026 117.537 105.185 117.36C105.348 117.184 105.43 116.956 105.43 116.678V113.437H106.704V118.512H105.552L105.527 117.854C105.401 118.055 105.229 118.235 105.012 118.395C104.798 118.554 104.506 118.634 104.136 118.634ZM110.039 118.634C109.499 118.634 109.06 118.513 108.72 118.272C108.38 118.028 108.129 117.705 107.966 117.304C107.806 116.903 107.726 116.467 107.726 115.995C107.726 115.526 107.816 115.088 107.996 114.68C108.176 114.273 108.443 113.943 108.796 113.692C109.15 113.441 109.588 113.315 110.111 113.315C110.403 113.315 110.668 113.345 110.906 113.407C111.143 113.468 111.374 113.59 111.598 113.773L111.181 114.854C111.079 114.701 110.929 114.584 110.732 114.502C110.539 114.417 110.355 114.375 110.182 114.375C109.442 114.375 109.071 114.911 109.071 115.985C109.071 116.548 109.163 116.958 109.347 117.213C109.533 117.467 109.812 117.595 110.182 117.595C110.427 117.595 110.642 117.549 110.829 117.457C111.016 117.362 111.157 117.262 111.252 117.156L111.639 118.063C111.544 118.165 111.357 118.286 111.079 118.425C110.8 118.564 110.454 118.634 110.039 118.634ZM114.311 118.665C113.737 118.665 113.348 118.515 113.144 118.216C112.944 117.917 112.843 117.466 112.843 116.861V114.507H112.181V113.437H112.894L112.966 112.367L114.076 111.888V113.437H115.33V114.507H114.076V116.83C114.076 117.126 114.117 117.331 114.199 117.447C114.284 117.559 114.399 117.615 114.545 117.615C114.695 117.615 114.853 117.576 115.019 117.498C115.185 117.42 115.316 117.34 115.411 117.258L115.656 118.288C115.551 118.362 115.413 118.429 115.243 118.486C115.077 118.541 114.907 118.583 114.734 118.614C114.564 118.648 114.423 118.665 114.311 118.665ZM116.48 112.612V111.257H117.906V112.612H116.48ZM116.531 118.512V113.437H117.855V118.512H116.531ZM121.225 118.614C120.478 118.614 119.9 118.379 119.493 117.911C119.085 117.442 118.881 116.793 118.881 115.964C118.881 115.129 119.092 114.478 119.513 114.013C119.934 113.548 120.518 113.315 121.266 113.315C122.016 113.315 122.587 113.556 122.978 114.038C123.372 114.517 123.569 115.159 123.569 115.964C123.569 116.769 123.365 117.413 122.957 117.895C122.553 118.374 121.976 118.614 121.225 118.614ZM121.245 117.595C121.891 117.595 122.213 117.051 122.213 115.964C122.213 114.871 121.891 114.324 121.245 114.324C120.926 114.324 120.678 114.451 120.501 114.706C120.325 114.957 120.236 115.377 120.236 115.964C120.236 116.548 120.325 116.966 120.501 117.218C120.678 117.469 120.926 117.595 121.245 117.595ZM124.581 118.512V113.437H125.763L125.788 114.105C125.921 113.901 126.106 113.719 126.344 113.559C126.581 113.396 126.894 113.315 127.281 113.315C127.797 113.315 128.181 113.478 128.433 113.804C128.684 114.13 128.81 114.582 128.81 115.159V118.512H127.505V115.271C127.505 114.989 127.446 114.762 127.327 114.589C127.208 114.412 127.026 114.324 126.782 114.324C126.544 114.324 126.335 114.412 126.155 114.589C125.975 114.762 125.885 114.989 125.885 115.271V118.512H124.581Z" fill="white"/>
<path d="M80.32 148.137C79.8943 148.137 79.4686 148.085 79.0429 147.98C78.6217 147.876 78.2368 147.713 77.888 147.491C77.5439 147.265 77.2676 146.97 77.0593 146.608C76.8509 146.246 76.7468 145.809 76.7468 145.297C76.7468 144.699 76.9143 144.206 77.2495 143.816C77.5846 143.427 78.0216 143.137 78.5606 142.947C78.1258 142.752 77.7816 142.467 77.528 142.091C77.2789 141.71 77.1544 141.23 77.1544 140.65C77.1544 140.053 77.3084 139.575 77.6163 139.217C77.9288 138.855 78.3273 138.594 78.8119 138.436C79.301 138.273 79.8083 138.191 80.3336 138.191C80.8544 138.191 81.3549 138.273 81.8349 138.436C82.315 138.594 82.7067 138.855 83.0102 139.217C83.3181 139.575 83.4721 140.053 83.4721 140.65C83.4721 141.221 83.3408 141.697 83.0781 142.077C82.8154 142.453 82.4735 142.743 82.0523 142.947C82.5958 143.132 83.0351 143.422 83.3702 143.816C83.7099 144.206 83.8797 144.699 83.8797 145.297C83.8797 145.809 83.7755 146.246 83.5672 146.608C83.3589 146.97 83.0804 147.265 82.7316 147.491C82.3874 147.713 82.0048 147.876 81.5836 147.98C81.1669 148.085 80.7457 148.137 80.32 148.137ZM80.3472 142.322C80.7684 142.322 81.0922 142.186 81.3186 141.914C81.5496 141.642 81.6651 141.262 81.6651 140.773C81.6651 140.329 81.5587 139.996 81.3458 139.774C81.1375 139.552 80.8046 139.441 80.3472 139.441C79.4324 139.441 78.975 139.885 78.975 140.773C78.975 141.262 79.0972 141.642 79.3418 141.914C79.5909 142.186 79.926 142.322 80.3472 142.322ZM80.32 146.764C81.3798 146.764 81.9097 146.266 81.9097 145.27C81.9097 144.862 81.8304 144.541 81.6719 144.305C81.5179 144.07 81.3186 143.902 81.0741 143.803C80.8295 143.703 80.5782 143.653 80.32 143.653C80.0574 143.653 79.8015 143.703 79.5524 143.803C79.3078 143.902 79.104 144.07 78.941 144.305C78.7825 144.541 78.7032 144.862 78.7032 145.27C78.7032 145.773 78.8414 146.148 79.1176 146.398C79.3984 146.642 79.7992 146.764 80.32 146.764ZM88.4868 148.137C87.6625 148.137 86.9968 147.926 86.4896 147.505C85.9823 147.079 85.6132 146.495 85.3823 145.752C85.1513 145.005 85.0358 144.147 85.0358 143.178C85.0358 141.484 85.337 140.229 85.9393 139.414C86.5462 138.599 87.3953 138.191 88.4868 138.191C89.5828 138.191 90.4319 138.599 91.0343 139.414C91.6366 140.229 91.9378 141.484 91.9378 143.178C91.9378 144.147 91.8223 145.005 91.5913 145.752C91.3603 146.495 90.9912 147.079 90.484 147.505C89.9768 147.926 89.311 148.137 88.4868 148.137ZM88.5004 146.683C88.8899 146.683 89.1956 146.529 89.4175 146.221C89.6439 145.908 89.8024 145.487 89.893 144.957C89.9881 144.423 90.0357 143.825 90.0357 143.164C90.0357 142.467 89.9858 141.853 89.8862 141.323C89.7911 140.789 89.6303 140.372 89.4039 140.073C89.182 139.77 88.8808 139.618 88.5004 139.618C88.1154 139.618 87.8075 139.77 87.5765 140.073C87.3501 140.372 87.187 140.789 87.0874 141.323C86.9877 141.853 86.9379 142.467 86.9379 143.164C86.9379 143.825 86.9855 144.423 87.0806 144.957C87.1802 145.487 87.3433 145.908 87.5697 146.221C87.8007 146.529 88.1109 146.683 88.5004 146.683ZM95.1889 143.504C94.4099 143.504 93.8347 143.27 93.4634 142.804C93.092 142.333 92.9063 141.71 92.9063 140.936C92.9063 140.026 93.1124 139.367 93.5245 138.959C93.9366 138.547 94.4914 138.341 95.1889 138.341C95.8818 138.341 96.4275 138.547 96.826 138.959C97.2291 139.367 97.4306 140.03 97.4306 140.949C97.4306 141.452 97.3582 141.896 97.2133 142.281C97.0729 142.661 96.8374 142.96 96.5068 143.178C96.1807 143.395 95.7414 143.504 95.1889 143.504ZM95.1753 147.892L100.365 138.422H101.697L96.5068 147.892H95.1753ZM95.1753 142.485C95.4017 142.485 95.5693 142.414 95.678 142.274C95.7867 142.134 95.8569 141.95 95.8886 141.724C95.9203 141.493 95.9361 141.244 95.9361 140.977C95.9361 140.438 95.8818 140.037 95.7731 139.774C95.6689 139.507 95.4606 139.373 95.1481 139.373C94.8492 139.373 94.6431 139.505 94.5299 139.767C94.4167 140.03 94.3601 140.42 94.3601 140.936C94.3601 141.362 94.4099 141.726 94.5095 142.03C94.6092 142.333 94.8311 142.485 95.1753 142.485ZM101.751 148.096C100.963 148.096 100.386 147.86 100.019 147.389C99.652 146.914 99.4686 146.289 99.4686 145.514C99.4686 144.609 99.6724 143.95 100.08 143.538C100.488 143.125 101.04 142.919 101.738 142.919C102.43 142.919 102.978 143.128 103.382 143.544C103.789 143.957 103.993 144.622 103.993 145.542C103.993 146.04 103.92 146.481 103.776 146.866C103.631 147.251 103.393 147.552 103.062 147.77C102.736 147.987 102.299 148.096 101.751 148.096ZM101.71 147.05C101.946 147.05 102.118 146.982 102.227 146.846C102.335 146.71 102.406 146.529 102.437 146.302C102.469 146.076 102.485 145.827 102.485 145.555C102.485 145.016 102.433 144.615 102.329 144.353C102.224 144.086 102.018 143.952 101.71 143.952C101.398 143.952 101.187 144.083 101.079 144.346C100.974 144.609 100.922 145.003 100.922 145.528C100.922 145.949 100.968 146.309 101.058 146.608C101.153 146.903 101.371 147.05 101.71 147.05Z" fill="white"/>
<path d="M144.814 234.541C144.444 234.541 144.14 234.507 143.902 234.44C143.667 234.368 143.484 234.288 143.352 234.2C143.222 234.108 143.132 234.032 143.082 233.971L143.459 233.003C143.608 233.125 143.798 233.246 144.029 233.364C144.264 233.483 144.535 233.543 144.844 233.543C145.086 233.543 145.254 233.494 145.349 233.395C145.447 233.297 145.497 233.19 145.497 233.074C145.497 232.914 145.386 232.77 145.165 232.641C144.945 232.512 144.688 232.385 144.396 232.259C144.223 232.184 144.039 232.089 143.846 231.974C143.652 231.858 143.486 231.705 143.346 231.515C143.211 231.325 143.143 231.08 143.143 230.781C143.143 230.323 143.309 229.958 143.642 229.686C143.978 229.411 144.454 229.273 145.069 229.273C145.463 229.273 145.795 229.333 146.067 229.452C146.342 229.567 146.526 229.671 146.617 229.762L146.271 230.679C146.138 230.578 145.97 230.481 145.767 230.389C145.563 230.297 145.344 230.251 145.109 230.251C144.851 230.251 144.671 230.285 144.569 230.353C144.467 230.421 144.416 230.53 144.416 230.679C144.416 230.846 144.506 230.983 144.686 231.092C144.87 231.197 145.089 231.301 145.344 231.403C145.768 231.569 146.11 231.775 146.368 232.019C146.629 232.261 146.76 232.568 146.76 232.942C146.76 233.22 146.696 233.482 146.566 233.726C146.437 233.967 146.23 234.164 145.945 234.317C145.66 234.467 145.283 234.541 144.814 234.541ZM147.778 234.45V226.705H148.98V230.506L148.939 231.698L150.498 229.375H151.945L150.172 231.709L152.118 234.45H150.58L148.939 231.994L148.98 233.237V234.45H147.778ZM152.851 228.55V227.195H154.277V228.55H152.851ZM152.902 234.45V229.375H154.226V234.45H152.902ZM155.429 234.45V229.375H156.611L156.636 230.043C156.769 229.839 156.954 229.657 157.192 229.497C157.43 229.334 157.742 229.253 158.129 229.253C158.646 229.253 159.029 229.416 159.281 229.742C159.532 230.068 159.658 230.52 159.658 231.097V234.45H158.353V231.209C158.353 230.927 158.294 230.7 158.175 230.527C158.056 230.35 157.875 230.262 157.63 230.262C157.392 230.262 157.183 230.35 157.003 230.527C156.823 230.7 156.733 230.927 156.733 231.209V234.45H155.429ZM163.036 234.45V227.347H164.931C165.767 227.347 166.375 227.514 166.755 227.847C167.136 228.176 167.326 228.641 167.326 229.243C167.326 229.511 167.261 229.784 167.132 230.063C167.003 230.341 166.791 230.55 166.495 230.69C166.9 230.788 167.198 230.985 167.392 231.281C167.586 231.576 167.683 231.95 167.683 232.402C167.683 233.027 167.469 233.524 167.041 233.894C166.613 234.265 165.92 234.45 164.962 234.45H163.036ZM164.931 228.356H164.32V230.323H165.145C165.376 230.323 165.558 230.268 165.69 230.16C165.826 230.048 165.921 229.912 165.976 229.752C166.033 229.589 166.062 229.433 166.062 229.283C166.062 229.039 166.008 228.85 165.899 228.718C165.794 228.582 165.655 228.489 165.481 228.438C165.308 228.383 165.125 228.356 164.931 228.356ZM165.043 231.27H164.32V233.421H165.104C165.308 233.421 165.504 233.393 165.69 233.339C165.881 233.285 166.035 233.179 166.154 233.023C166.276 232.867 166.337 232.636 166.337 232.33C166.337 232.021 166.273 231.792 166.144 231.642C166.018 231.49 165.855 231.389 165.655 231.342C165.458 231.294 165.254 231.27 165.043 231.27ZM168.643 234.45V229.375H169.794L169.855 230.272C169.91 230.139 169.993 229.998 170.105 229.849C170.22 229.7 170.378 229.574 170.579 229.472C170.783 229.367 171.044 229.314 171.363 229.314C171.462 229.314 171.549 229.321 171.623 229.334C171.698 229.348 171.768 229.368 171.832 229.396L171.547 230.73C171.438 230.622 171.272 230.567 171.048 230.567C170.786 230.567 170.572 230.622 170.406 230.73C170.239 230.836 170.115 230.955 170.034 231.087C169.956 231.22 169.916 231.321 169.916 231.393V234.45H168.643ZM172.424 228.55V227.195H173.851V228.55H172.424ZM172.475 234.45V229.375H173.8V234.45H172.475ZM175.855 235.326C175.977 235.401 176.125 235.469 176.298 235.53C176.475 235.591 176.68 235.622 176.915 235.622C177.35 235.622 177.676 235.508 177.893 235.28C178.11 235.056 178.219 234.698 178.219 234.205V233.41C178.172 233.584 178.097 233.755 177.995 233.925C177.893 234.095 177.752 234.236 177.572 234.348C177.395 234.457 177.17 234.511 176.894 234.511C176.511 234.511 176.162 234.424 175.85 234.251C175.541 234.074 175.295 233.796 175.111 233.415C174.928 233.035 174.836 232.537 174.836 231.923C174.836 231.298 174.926 230.79 175.106 230.399C175.289 230.005 175.534 229.717 175.84 229.533C176.149 229.346 176.49 229.253 176.864 229.253C177.282 229.253 177.601 229.358 177.822 229.569C178.042 229.779 178.175 230.007 178.219 230.251L178.362 229.375H179.36V234.205C179.36 234.983 179.163 235.598 178.769 236.05C178.379 236.505 177.801 236.732 177.037 236.732C176.626 236.732 176.269 236.68 175.967 236.574C175.665 236.472 175.437 236.376 175.284 236.284L175.855 235.326ZM177.149 233.512C177.445 233.512 177.676 233.373 177.842 233.094C178.012 232.813 178.097 232.415 178.097 231.902C178.097 231.417 178.024 231.026 177.878 230.73C177.732 230.431 177.502 230.282 177.19 230.282C177.017 230.282 176.85 230.335 176.691 230.44C176.534 230.542 176.405 230.712 176.303 230.949C176.201 231.187 176.151 231.508 176.151 231.912C176.151 232.463 176.244 232.867 176.431 233.125C176.621 233.383 176.86 233.512 177.149 233.512ZM180.556 234.45V226.685H181.759V229.253L181.733 230.017C181.869 229.82 182.059 229.643 182.304 229.487C182.548 229.331 182.873 229.253 183.277 229.253C183.786 229.253 184.167 229.416 184.418 229.742C184.67 230.068 184.795 230.52 184.795 231.097V234.45H183.491V231.23C183.491 230.948 183.423 230.72 183.287 230.547C183.155 230.37 182.968 230.282 182.727 230.282C182.489 230.282 182.277 230.37 182.09 230.547C181.903 230.72 181.81 230.948 181.81 231.23V234.45H180.556ZM187.789 234.603C187.215 234.603 186.826 234.453 186.622 234.154C186.422 233.855 186.322 233.404 186.322 232.799V230.445H185.659V229.375H186.373L186.444 228.305L187.555 227.826V229.375H188.808V230.445H187.555V232.768C187.555 233.064 187.596 233.269 187.677 233.385C187.762 233.497 187.877 233.553 188.023 233.553C188.173 233.553 188.331 233.514 188.497 233.436C188.664 233.358 188.795 233.278 188.89 233.196L189.134 234.226C189.029 234.3 188.891 234.366 188.721 234.424C188.555 234.479 188.385 234.521 188.212 234.552C188.042 234.586 187.901 234.603 187.789 234.603ZM189.999 234.45V229.375H191.181L191.206 230.043C191.339 229.839 191.524 229.657 191.762 229.497C192 229.334 192.312 229.253 192.699 229.253C193.215 229.253 193.599 229.416 193.851 229.742C194.102 230.068 194.228 230.52 194.228 231.097V234.45H192.923V231.209C192.923 230.927 192.864 230.7 192.745 230.527C192.626 230.35 192.444 230.262 192.2 230.262C191.962 230.262 191.753 230.35 191.573 230.527C191.393 230.7 191.303 230.927 191.303 231.209V234.45H189.999ZM197.6 234.582C197.029 234.582 196.569 234.463 196.219 234.226C195.869 233.984 195.615 233.667 195.455 233.273C195.295 232.875 195.216 232.442 195.216 231.974C195.216 231.481 195.306 231.029 195.486 230.618C195.669 230.204 195.936 229.873 196.285 229.625C196.639 229.377 197.07 229.253 197.58 229.253C198.34 229.253 198.872 229.474 199.174 229.915C199.477 230.353 199.628 230.975 199.628 231.78C199.628 231.851 199.626 231.941 199.623 232.05C199.619 232.159 199.614 232.252 199.607 232.33H196.55C196.571 232.731 196.683 233.045 196.887 233.273C197.094 233.5 197.403 233.614 197.814 233.614C198.025 233.614 198.25 233.568 198.492 233.477C198.733 233.381 198.911 233.268 199.027 233.135L199.434 234.103C199.298 234.195 199.083 234.299 198.787 234.414C198.495 234.526 198.099 234.582 197.6 234.582ZM196.54 231.535H198.334C198.334 231.179 198.301 230.907 198.237 230.72C198.176 230.53 198.091 230.399 197.982 230.328C197.873 230.257 197.749 230.221 197.61 230.221C197.264 230.221 197.004 230.35 196.831 230.608C196.657 230.863 196.561 231.172 196.54 231.535ZM202.172 234.541C201.801 234.541 201.497 234.507 201.26 234.44C201.025 234.368 200.842 234.288 200.709 234.2C200.58 234.108 200.49 234.032 200.439 233.971L200.816 233.003C200.966 233.125 201.156 233.246 201.387 233.364C201.621 233.483 201.893 233.543 202.202 233.543C202.443 233.543 202.612 233.494 202.707 233.395C202.805 233.297 202.854 233.19 202.854 233.074C202.854 232.914 202.744 232.77 202.523 232.641C202.302 232.512 202.046 232.385 201.754 232.259C201.581 232.184 201.397 232.089 201.204 231.974C201.01 231.858 200.844 231.705 200.704 231.515C200.568 231.325 200.501 231.08 200.501 230.781C200.501 230.323 200.667 229.958 201 229.686C201.336 229.411 201.812 229.273 202.426 229.273C202.82 229.273 203.153 229.333 203.425 229.452C203.7 229.567 203.884 229.671 203.975 229.762L203.629 230.679C203.496 230.578 203.328 230.481 203.124 230.389C202.921 230.297 202.702 230.251 202.467 230.251C202.209 230.251 202.029 230.285 201.927 230.353C201.825 230.421 201.774 230.53 201.774 230.679C201.774 230.846 201.864 230.983 202.044 231.092C202.228 231.197 202.447 231.301 202.702 231.403C203.126 231.569 203.467 231.775 203.726 232.019C203.987 232.261 204.118 232.568 204.118 232.942C204.118 233.22 204.053 233.482 203.924 233.726C203.795 233.967 203.588 234.164 203.303 234.317C203.017 234.467 202.64 234.541 202.172 234.541ZM206.57 234.541C206.2 234.541 205.896 234.507 205.658 234.44C205.424 234.368 205.24 234.288 205.108 234.2C204.979 234.108 204.889 234.032 204.838 233.971L205.215 233.003C205.364 233.125 205.554 233.246 205.785 233.364C206.02 233.483 206.291 233.543 206.601 233.543C206.842 233.543 207.01 233.494 207.105 233.395C207.203 233.297 207.253 233.19 207.253 233.074C207.253 232.914 207.142 232.77 206.922 232.641C206.701 232.512 206.444 232.385 206.152 232.259C205.979 232.184 205.796 232.089 205.602 231.974C205.408 231.858 205.242 231.705 205.103 231.515C204.967 231.325 204.899 231.08 204.899 230.781C204.899 230.323 205.065 229.958 205.398 229.686C205.734 229.411 206.21 229.273 206.825 229.273C207.219 229.273 207.552 229.333 207.823 229.452C208.099 229.567 208.282 229.671 208.374 229.762L208.027 230.679C207.895 230.578 207.727 230.481 207.523 230.389C207.319 230.297 207.1 230.251 206.866 230.251C206.607 230.251 206.427 230.285 206.325 230.353C206.224 230.421 206.173 230.53 206.173 230.679C206.173 230.846 206.263 230.983 206.443 231.092C206.626 231.197 206.845 231.301 207.1 231.403C207.524 231.569 207.866 231.775 208.124 232.019C208.386 232.261 208.516 232.568 208.516 232.942C208.516 233.22 208.452 233.482 208.323 233.726C208.194 233.967 207.986 234.164 207.701 234.317C207.416 234.467 207.039 234.541 206.57 234.541Z" fill="#7A7A7A"/>
<path d="M262.965 119.143L268.75 117.748L268.366 116.153L269.485 115.883L270.562 120.351L269.443 120.621L269.058 119.026L263.273 120.421L262.965 119.143ZM264.04 124.165C263.906 123.61 263.914 123.135 264.063 122.739C264.215 122.343 264.464 122.02 264.81 121.773C265.159 121.525 265.561 121.345 266.017 121.236C266.496 121.12 266.956 121.102 267.398 121.18C267.843 121.262 268.228 121.443 268.551 121.725C268.875 122.01 269.096 122.401 269.216 122.896C269.394 123.636 269.304 124.204 268.946 124.601C268.591 124.998 268.022 125.291 267.239 125.479C267.17 125.496 267.082 125.516 266.976 125.538C266.869 125.56 266.777 125.577 266.7 125.589L265.983 122.617C265.598 122.731 265.319 122.913 265.146 123.165C264.973 123.419 264.935 123.747 265.031 124.146C265.08 124.351 265.178 124.56 265.324 124.773C265.473 124.985 265.625 125.131 265.781 125.213L264.935 125.836C264.814 125.725 264.663 125.54 264.482 125.28C264.304 125.022 264.157 124.65 264.04 124.165ZM266.753 122.421L267.174 124.164C267.52 124.08 267.777 123.985 267.943 123.879C268.114 123.775 268.221 123.662 268.265 123.539C268.309 123.417 268.315 123.288 268.282 123.153C268.201 122.816 268.014 122.593 267.723 122.486C267.435 122.377 267.111 122.355 266.753 122.421ZM264.772 126.636L266.841 127.217L267.533 127.438L268.077 126.909L269.705 125.447L270.044 126.853L268.939 127.749L268.425 128.135L269.061 128.254L270.45 128.537L270.768 129.855L268.697 129.306L267.987 129.1L267.478 129.6L265.854 131.124L265.517 129.727L266.673 128.694L267.066 128.368L266.577 128.297L265.102 128.003L264.772 126.636ZM266.316 133.69C266.181 133.132 266.235 132.718 266.478 132.45C266.721 132.185 267.137 131.982 267.725 131.84L270.013 131.289L269.858 130.645L270.898 130.394L271.065 131.087L272.122 130.906L272.848 131.873L271.342 132.236L271.636 133.455L270.596 133.706L270.302 132.487L268.044 133.032C267.756 133.101 267.566 133.189 267.473 133.295C267.384 133.404 267.357 133.529 267.391 133.671C267.426 133.817 267.501 133.961 267.616 134.105C267.731 134.248 267.839 134.357 267.941 134.43L266.997 134.909C266.9 134.824 266.803 134.706 266.707 134.554C266.616 134.405 266.535 134.25 266.464 134.089C266.391 133.932 266.342 133.799 266.316 133.69ZM267.198 137.218C267.078 136.72 267.147 136.313 267.407 135.999C267.671 135.687 268.082 135.464 268.64 135.33L271.899 134.544L272.197 135.782L269.047 136.542C268.776 136.607 268.567 136.71 268.419 136.85C268.272 136.991 268.226 137.18 268.284 137.418C268.34 137.652 268.473 137.826 268.682 137.94C268.892 138.057 269.132 138.083 269.403 138.018L272.553 137.258L272.852 138.496L267.919 139.686L267.649 138.566L268.282 138.388C268.057 138.312 267.842 138.188 267.636 138.014C267.431 137.843 267.285 137.578 267.198 137.218ZM268.195 140.831L273.128 139.642L273.398 140.761L272.541 141.031C272.682 141.052 272.839 141.1 273.01 141.174C273.182 141.251 273.342 141.376 273.488 141.547C273.638 141.72 273.75 141.962 273.825 142.272C273.848 142.368 273.862 142.454 273.866 142.53C273.871 142.605 273.867 142.678 273.856 142.747L272.491 142.783C272.571 142.651 272.585 142.477 272.533 142.259C272.471 142.005 272.368 141.809 272.224 141.673C272.082 141.536 271.938 141.443 271.79 141.395C271.643 141.35 271.535 141.336 271.465 141.353L268.493 142.069L268.195 140.831ZM269.431 146.521C269.297 145.966 269.304 145.491 269.454 145.095C269.606 144.699 269.855 144.377 270.201 144.129C270.55 143.881 270.952 143.702 271.408 143.592C271.886 143.476 272.347 143.458 272.788 143.536C273.234 143.618 273.619 143.799 273.942 144.081C274.266 144.366 274.487 144.757 274.607 145.252C274.785 145.992 274.695 146.56 274.337 146.958C273.981 147.354 273.413 147.647 272.63 147.836C272.561 147.852 272.473 147.872 272.366 147.894C272.26 147.916 272.168 147.933 272.09 147.945L271.374 144.973C270.989 145.087 270.71 145.269 270.536 145.521C270.364 145.776 270.325 146.103 270.422 146.502C270.471 146.707 270.569 146.916 270.714 147.129C270.863 147.341 271.016 147.488 271.172 147.569L270.326 148.192C270.205 148.081 270.054 147.896 269.872 147.636C269.695 147.378 269.548 147.007 269.431 146.521ZM272.144 144.777L272.564 146.52C272.911 146.437 273.168 146.341 273.334 146.235C273.505 146.131 273.612 146.018 273.656 145.895C273.7 145.773 273.705 145.644 273.673 145.509C273.591 145.172 273.405 144.95 273.114 144.842C272.825 144.733 272.502 144.711 272.144 144.777ZM270.787 151.582L277.692 149.917L277.997 151.185L271.093 152.85L270.787 151.582ZM271.393 154.095L276.326 152.906L276.601 154.045L275.954 154.232C276.184 154.313 276.405 154.448 276.618 154.638C276.833 154.831 276.986 155.119 277.078 155.502C277.159 155.836 277.151 156.131 277.056 156.388C276.961 156.645 276.791 156.862 276.548 157.04C276.786 157.115 277.022 157.248 277.257 157.44C277.496 157.634 277.667 157.942 277.768 158.365C277.888 158.86 277.819 159.268 277.561 159.589C277.302 159.91 276.893 160.138 276.331 160.273L273.072 161.059L272.769 159.801L275.899 159.046C276.173 158.98 276.382 158.874 276.525 158.728C276.671 158.581 276.715 158.388 276.658 158.15C276.602 157.919 276.466 157.73 276.249 157.583C276.035 157.436 275.791 157.395 275.517 157.461L272.387 158.216L272.081 156.948L275.211 156.193C275.485 156.127 275.695 156.012 275.841 155.848C275.99 155.686 276.037 155.488 275.98 155.253C275.923 155.015 275.785 154.832 275.565 154.703C275.348 154.574 275.103 154.542 274.829 154.608L271.699 155.363L271.393 154.095ZM271.186 162.713L278.279 161.003L278.563 162.182L278.405 162.22L277.687 162.288C277.885 162.282 278.075 162.331 278.257 162.434C278.44 162.54 278.597 162.684 278.728 162.865C278.863 163.049 278.958 163.254 279.012 163.478C279.17 164.132 279.055 164.664 278.669 165.076C278.285 165.486 277.709 165.784 276.94 165.969C276.078 166.177 275.372 166.154 274.821 165.899C274.274 165.646 273.93 165.224 273.787 164.633C273.699 164.267 273.742 163.945 273.917 163.669C274.092 163.396 274.315 163.185 274.587 163.036L273.684 163.379L271.475 163.912L271.186 162.713ZM274.699 164.109C274.737 164.268 274.827 164.409 274.968 164.532C275.113 164.654 275.318 164.734 275.582 164.772C275.846 164.809 276.178 164.78 276.577 164.684C277.132 164.55 277.509 164.358 277.707 164.107C277.906 163.86 277.974 163.61 277.913 163.355C277.839 163.048 277.624 162.852 277.268 162.767C276.916 162.684 276.507 162.698 276.042 162.811C275.576 162.923 275.218 163.095 274.966 163.327C274.719 163.561 274.63 163.822 274.699 164.109ZM274.645 167.579L279.578 166.39L279.848 167.509L278.99 167.779C279.132 167.8 279.288 167.848 279.46 167.922C279.632 168 279.791 168.124 279.937 168.295C280.088 168.468 280.2 168.71 280.275 169.02C280.298 169.116 280.312 169.202 280.316 169.278C280.32 169.353 280.317 169.426 280.306 169.495L278.941 169.531C279.021 169.399 279.035 169.225 278.982 169.007C278.921 168.753 278.818 168.557 278.673 168.421C278.532 168.284 278.387 168.191 278.24 168.143C278.092 168.098 277.984 168.084 277.915 168.101L274.943 168.817L274.645 167.579ZM275.907 173.251C275.732 172.525 275.825 171.909 276.185 171.403C276.545 170.896 277.128 170.546 277.934 170.352C278.746 170.156 279.428 170.208 279.979 170.509C280.53 170.809 280.893 171.322 281.068 172.049C281.244 172.779 281.143 173.39 280.766 173.883C280.393 174.378 279.815 174.72 279.032 174.909C278.25 175.097 277.576 175.05 277.012 174.767C276.452 174.486 276.083 173.981 275.907 173.251ZM276.903 173.032C277.054 173.66 277.658 173.846 278.715 173.591C279.778 173.335 280.234 172.893 280.083 172.266C280.008 171.955 279.826 171.744 279.537 171.632C279.251 171.519 278.823 171.532 278.251 171.669C277.683 171.806 277.298 171.99 277.095 172.221C276.892 172.451 276.828 172.722 276.903 173.032ZM277.092 177.728L281.542 174.537L281.877 175.924L279.616 177.37L278.856 177.784L279.716 177.787L282.381 178.014L282.696 179.322L277.304 178.609L277.092 177.728ZM278.246 183.078C278.112 182.524 278.12 182.048 278.269 181.653C278.421 181.256 278.67 180.934 279.016 180.686C279.365 180.438 279.767 180.259 280.223 180.149C280.701 180.033 281.162 180.015 281.603 180.094C282.049 180.175 282.434 180.356 282.757 180.638C283.081 180.924 283.302 181.314 283.422 181.809C283.6 182.549 283.51 183.117 283.152 183.515C282.796 183.911 282.228 184.204 281.445 184.393C281.376 184.409 281.288 184.429 281.181 184.451C281.075 184.473 280.983 184.49 280.905 184.502L280.189 181.53C279.804 181.644 279.525 181.827 279.351 182.078C279.179 182.333 279.141 182.66 279.237 183.059C279.286 183.264 279.384 183.473 279.529 183.686C279.678 183.898 279.831 184.045 279.987 184.126L279.141 184.749C279.02 184.639 278.869 184.453 278.687 184.193C278.51 183.935 278.363 183.564 278.246 183.078ZM280.959 181.334L281.379 183.077C281.726 182.994 281.983 182.899 282.149 182.792C282.32 182.688 282.427 182.575 282.471 182.453C282.515 182.33 282.52 182.201 282.488 182.066C282.407 181.729 282.22 181.507 281.929 181.399C281.64 181.29 281.317 181.269 280.959 181.334ZM279.089 186.009L284.022 184.819L284.296 185.959L283.65 186.146C283.879 186.227 284.1 186.362 284.314 186.552C284.528 186.745 284.681 187.033 284.774 187.416C284.854 187.749 284.847 188.045 284.751 188.302C284.656 188.559 284.487 188.776 284.243 188.954C284.481 189.029 284.718 189.162 284.953 189.354C285.192 189.548 285.362 189.856 285.464 190.279C285.583 190.774 285.514 191.182 285.256 191.503C284.998 191.824 284.588 192.052 284.027 192.187L280.768 192.973L280.464 191.715L283.595 190.96C283.869 190.894 284.077 190.788 284.22 190.641C284.366 190.494 284.411 190.302 284.353 190.064C284.298 189.833 284.161 189.644 283.944 189.497C283.73 189.35 283.487 189.309 283.212 189.375L280.082 190.13L279.776 188.862L282.907 188.107C283.181 188.041 283.391 187.926 283.536 187.761C283.686 187.6 283.732 187.401 283.676 187.167C283.619 186.929 283.48 186.746 283.26 186.617C283.044 186.488 282.799 186.456 282.525 186.522L279.394 187.277L279.089 186.009ZM281.43 196.283C281.296 195.728 281.304 195.253 281.453 194.857C281.605 194.461 281.854 194.138 282.2 193.891C282.549 193.643 282.951 193.463 283.407 193.354C283.885 193.238 284.346 193.22 284.787 193.298C285.233 193.38 285.618 193.561 285.941 193.843C286.265 194.128 286.486 194.519 286.606 195.014C286.784 195.754 286.694 196.322 286.336 196.72C285.981 197.116 285.412 197.409 284.629 197.598C284.56 197.614 284.472 197.634 284.365 197.656C284.259 197.678 284.167 197.695 284.089 197.707L283.373 194.735C282.988 194.849 282.709 195.031 282.535 195.283C282.363 195.538 282.325 195.865 282.421 196.264C282.47 196.469 282.568 196.678 282.713 196.891C282.862 197.103 283.015 197.25 283.171 197.331L282.325 197.954C282.204 197.843 282.053 197.658 281.871 197.398C281.694 197.14 281.547 196.768 281.43 196.283ZM284.143 194.539L284.564 196.282C284.91 196.199 285.167 196.103 285.333 195.997C285.504 195.893 285.611 195.78 285.655 195.657C285.699 195.535 285.704 195.406 285.672 195.271C285.591 194.934 285.404 194.712 285.113 194.604C284.824 194.495 284.501 194.473 284.143 194.539ZM282.273 199.214L287.206 198.024L287.483 199.173L286.84 199.354C287.069 199.435 287.289 199.573 287.5 199.767C287.714 199.959 287.867 200.244 287.958 200.621C288.079 201.122 288.01 201.534 287.752 201.855C287.494 202.175 287.084 202.403 286.523 202.539L283.264 203.325L282.958 202.057L286.108 201.297C286.382 201.231 286.59 201.12 286.73 200.964C286.874 200.807 286.917 200.609 286.86 200.372C286.804 200.141 286.669 199.958 286.455 199.825C286.245 199.69 286.002 199.656 285.728 199.722L282.578 200.482L282.273 199.214ZM283.81 206.243C283.676 205.685 283.73 205.272 283.973 205.004C284.216 204.739 284.632 204.536 285.22 204.394L287.508 203.842L287.353 203.198L288.393 202.947L288.56 203.641L289.617 203.459L290.343 204.427L288.837 204.79L289.131 206.008L288.091 206.259L287.797 205.041L285.538 205.585C285.251 205.655 285.061 205.742 284.968 205.849C284.879 205.957 284.851 206.083 284.886 206.225C284.921 206.37 284.996 206.515 285.111 206.658C285.226 206.801 285.334 206.91 285.435 206.983L284.492 207.462C284.395 207.377 284.298 207.259 284.202 207.108C284.11 206.959 284.029 206.803 283.959 206.642C283.886 206.485 283.837 206.352 283.81 206.243Z" fill="white"/>
<path d="M238.699 167.855H243.114V169.404H237.014C236.987 169.259 236.964 169.114 236.946 168.97C236.928 168.82 236.919 168.648 236.919 168.453C236.919 167.878 237.012 167.387 237.198 166.979C237.388 166.572 237.664 166.207 238.026 165.885C238.393 165.564 238.844 165.247 239.378 164.934C239.673 164.762 239.967 164.572 240.261 164.364C240.556 164.155 240.8 163.909 240.995 163.623C241.194 163.333 241.294 162.982 241.294 162.57C241.294 162.217 241.183 161.902 240.961 161.626C240.744 161.35 240.393 161.212 239.908 161.212C239.405 161.212 239.002 161.375 238.699 161.701C238.4 162.027 238.21 162.448 238.128 162.964L236.688 162.285C236.761 161.814 236.944 161.384 237.238 160.994C237.533 160.6 237.918 160.288 238.393 160.057C238.869 159.821 239.414 159.704 240.03 159.704C240.592 159.704 241.101 159.81 241.559 160.023C242.016 160.231 242.381 160.537 242.653 160.94C242.924 161.343 243.06 161.832 243.06 162.407C243.06 162.996 242.954 163.505 242.741 163.936C242.528 164.366 242.213 164.758 241.797 165.111C241.384 165.464 240.877 165.822 240.275 166.184C239.849 166.442 239.498 166.685 239.222 166.911C238.95 167.133 238.776 167.448 238.699 167.855ZM247.714 169.649C246.89 169.649 246.224 169.438 245.717 169.017C245.21 168.591 244.841 168.007 244.61 167.264C244.379 166.517 244.263 165.659 244.263 164.69C244.263 162.996 244.564 161.742 245.167 160.926C245.774 160.111 246.623 159.704 247.714 159.704C248.81 159.704 249.659 160.111 250.262 160.926C250.864 161.742 251.165 162.996 251.165 164.69C251.165 165.659 251.05 166.517 250.819 167.264C250.588 168.007 250.219 168.591 249.711 169.017C249.204 169.438 248.538 169.649 247.714 169.649ZM247.728 168.195C248.117 168.195 248.423 168.041 248.645 167.733C248.871 167.421 249.03 166.999 249.12 166.47C249.215 165.935 249.263 165.337 249.263 164.676C249.263 163.979 249.213 163.365 249.114 162.835C249.018 162.301 248.858 161.884 248.631 161.585C248.409 161.282 248.108 161.13 247.728 161.13C247.343 161.13 247.035 161.282 246.804 161.585C246.577 161.884 246.414 162.301 246.315 162.835C246.215 163.365 246.165 163.979 246.165 164.676C246.165 165.337 246.213 165.935 246.308 166.47C246.408 166.999 246.571 167.421 246.797 167.733C247.028 168.041 247.338 168.195 247.728 168.195ZM254.416 165.016C253.637 165.016 253.062 164.783 252.691 164.316C252.319 163.845 252.134 163.222 252.134 162.448C252.134 161.538 252.34 160.879 252.752 160.471C253.164 160.059 253.719 159.853 254.416 159.853C255.109 159.853 255.655 160.059 256.053 160.471C256.456 160.879 256.658 161.542 256.658 162.462C256.658 162.964 256.586 163.408 256.441 163.793C256.3 164.173 256.065 164.472 255.734 164.69C255.408 164.907 254.969 165.016 254.416 165.016ZM254.403 169.404L259.593 159.935H260.924L255.734 169.404H254.403ZM254.403 163.997C254.629 163.997 254.797 163.927 254.905 163.786C255.014 163.646 255.084 163.462 255.116 163.236C255.148 163.005 255.163 162.756 255.163 162.489C255.163 161.95 255.109 161.549 255 161.286C254.896 161.019 254.688 160.886 254.375 160.886C254.077 160.886 253.871 161.017 253.757 161.28C253.644 161.542 253.587 161.932 253.587 162.448C253.587 162.874 253.637 163.238 253.737 163.542C253.837 163.845 254.058 163.997 254.403 163.997ZM260.979 169.608C260.19 169.608 259.613 169.373 259.246 168.902C258.879 168.426 258.696 167.801 258.696 167.027C258.696 166.121 258.9 165.462 259.307 165.05C259.715 164.638 260.267 164.432 260.965 164.432C261.658 164.432 262.206 164.64 262.609 165.057C263.016 165.469 263.22 166.134 263.22 167.054C263.22 167.552 263.148 167.994 263.003 168.379C262.858 168.763 262.62 169.065 262.29 169.282C261.964 169.499 261.526 169.608 260.979 169.608ZM260.938 168.562C261.173 168.562 261.345 168.494 261.454 168.358C261.563 168.222 261.633 168.041 261.665 167.815C261.696 167.588 261.712 167.339 261.712 167.067C261.712 166.528 261.66 166.128 261.556 165.865C261.452 165.598 261.246 165.464 260.938 165.464C260.625 165.464 260.415 165.596 260.306 165.858C260.202 166.121 260.15 166.515 260.15 167.04C260.15 167.461 260.195 167.821 260.286 168.12C260.381 168.415 260.598 168.562 260.938 168.562Z" fill="white"/>
<path d="M164.54 259.79H168.956V261.339H162.856C162.828 261.194 162.806 261.05 162.788 260.905C162.77 260.755 162.761 260.583 162.761 260.388C162.761 259.813 162.853 259.322 163.039 258.914C163.229 258.507 163.506 258.142 163.868 257.82C164.235 257.499 164.685 257.182 165.22 256.869C165.514 256.697 165.808 256.507 166.103 256.299C166.397 256.09 166.642 255.844 166.836 255.558C167.036 255.268 167.135 254.917 167.135 254.505C167.135 254.152 167.024 253.837 166.803 253.561C166.585 253.285 166.234 253.147 165.75 253.147C165.247 253.147 164.844 253.31 164.54 253.636C164.241 253.962 164.051 254.383 163.97 254.899L162.53 254.22C162.602 253.749 162.785 253.319 163.08 252.929C163.374 252.535 163.759 252.223 164.235 251.992C164.71 251.756 165.256 251.639 165.872 251.639C166.433 251.639 166.943 251.745 167.4 251.958C167.858 252.166 168.222 252.472 168.494 252.875C168.766 253.278 168.902 253.767 168.902 254.342C168.902 254.931 168.795 255.441 168.582 255.871C168.369 256.301 168.055 256.693 167.638 257.046C167.226 257.399 166.719 257.757 166.116 258.119C165.691 258.377 165.34 258.62 165.063 258.846C164.792 259.068 164.617 259.383 164.54 259.79ZM173.556 261.584C172.731 261.584 172.066 261.373 171.558 260.952C171.051 260.526 170.682 259.942 170.451 259.199C170.22 258.452 170.105 257.594 170.105 256.625C170.105 254.931 170.406 253.677 171.008 252.861C171.615 252.046 172.464 251.639 173.556 251.639C174.652 251.639 175.501 252.046 176.103 252.861C176.705 253.677 177.007 254.931 177.007 256.625C177.007 257.594 176.891 258.452 176.66 259.199C176.429 259.942 176.06 260.526 175.553 260.952C175.046 261.373 174.38 261.584 173.556 261.584ZM173.569 260.13C173.959 260.13 174.264 259.976 174.486 259.668C174.713 259.356 174.871 258.935 174.962 258.405C175.057 257.87 175.105 257.272 175.105 256.611C175.105 255.914 175.055 255.3 174.955 254.77C174.86 254.236 174.699 253.819 174.473 253.52C174.251 253.217 173.95 253.065 173.569 253.065C173.184 253.065 172.876 253.217 172.645 253.52C172.419 253.819 172.256 254.236 172.156 254.77C172.057 255.3 172.007 255.914 172.007 256.611C172.007 257.272 172.054 257.87 172.149 258.405C172.249 258.935 172.412 259.356 172.639 259.668C172.87 259.976 173.18 260.13 173.569 260.13ZM180.258 256.951C179.479 256.951 178.904 256.718 178.532 256.251C178.161 255.78 177.975 255.157 177.975 254.383C177.975 253.473 178.181 252.814 178.593 252.406C179.005 251.994 179.56 251.788 180.258 251.788C180.951 251.788 181.496 251.994 181.895 252.406C182.298 252.814 182.499 253.477 182.499 254.397C182.499 254.899 182.427 255.343 182.282 255.728C182.142 256.109 181.906 256.407 181.576 256.625C181.25 256.842 180.81 256.951 180.258 256.951ZM180.244 261.339L185.434 251.87H186.766L181.576 261.339H180.244ZM180.244 255.932C180.471 255.932 180.638 255.862 180.747 255.721C180.856 255.581 180.926 255.398 180.957 255.171C180.989 254.94 181.005 254.691 181.005 254.424C181.005 253.885 180.951 253.484 180.842 253.221C180.738 252.954 180.529 252.821 180.217 252.821C179.918 252.821 179.712 252.952 179.599 253.215C179.486 253.477 179.429 253.867 179.429 254.383C179.429 254.809 179.479 255.173 179.578 255.477C179.678 255.78 179.9 255.932 180.244 255.932ZM186.82 261.543C186.032 261.543 185.455 261.308 185.088 260.837C184.721 260.361 184.537 259.736 184.537 258.962C184.537 258.056 184.741 257.397 185.149 256.985C185.556 256.573 186.109 256.367 186.806 256.367C187.499 256.367 188.047 256.575 188.45 256.992C188.858 257.404 189.062 258.07 189.062 258.989C189.062 259.487 188.989 259.929 188.844 260.314C188.699 260.699 188.462 261 188.131 261.217C187.805 261.434 187.368 261.543 186.82 261.543ZM186.779 260.497C187.015 260.497 187.187 260.429 187.296 260.293C187.404 260.157 187.474 259.976 187.506 259.75C187.538 259.523 187.554 259.274 187.554 259.002C187.554 258.464 187.502 258.063 187.397 257.8C187.293 257.533 187.087 257.399 186.779 257.399C186.467 257.399 186.256 257.531 186.147 257.793C186.043 258.056 185.991 258.45 185.991 258.975C185.991 259.396 186.037 259.757 186.127 260.055C186.222 260.35 186.44 260.497 186.779 260.497Z" fill="#7A7A7A"/>
<path d="M179.157 33.7476L185.497 29.1615L185.584 29.2148L184.377 36.9501L183.196 36.2254L183.395 35.1404L181.232 33.8135L180.373 34.4936L179.157 33.7476ZM183.682 31.8856L182.062 33.1629L183.591 34.1007L183.969 32.0615L184.12 31.4845L183.682 31.8856ZM186.437 38.3577C185.977 38.0753 185.665 37.7425 185.502 37.3593C185.34 36.9732 185.295 36.5668 185.365 36.1399C185.439 35.7147 185.599 35.301 185.846 34.8985C186.091 34.499 186.397 34.1726 186.763 33.9193C187.13 33.666 187.53 33.5246 187.962 33.4951C188.395 33.4656 188.834 33.5876 189.28 33.8611C189.529 34.0139 189.738 34.1785 189.909 34.3549C190.08 34.5314 190.213 34.7564 190.308 35.03L189.387 35.7322C189.38 35.5486 189.314 35.3706 189.189 35.1981C189.068 35.0244 188.934 34.8923 188.786 34.8017C188.155 34.4145 187.559 34.6784 186.998 35.5932C186.703 36.0738 186.567 36.4707 186.59 36.7837C186.616 37.0986 186.787 37.3528 187.102 37.5464C187.311 37.6743 187.519 37.748 187.726 37.7675C187.935 37.7841 188.107 37.7724 188.244 37.7324L188.099 38.7079C187.965 38.745 187.743 38.7501 187.432 38.7232C187.122 38.6962 186.791 38.5744 186.437 38.3577ZM190.284 40.7296C189.798 40.4312 189.468 40.0892 189.294 39.7036C189.122 39.3151 189.07 38.9112 189.14 38.4919C189.212 38.0696 189.371 37.6588 189.616 37.2592C189.873 36.8394 190.186 36.5014 190.555 36.2453C190.928 35.988 191.328 35.8451 191.756 35.8167C192.187 35.7901 192.619 35.91 193.054 36.1764C193.702 36.5743 194.04 37.0405 194.066 37.5749C194.095 38.1065 193.899 38.7153 193.478 39.4015C193.441 39.4623 193.392 39.5381 193.332 39.629C193.273 39.7199 193.219 39.7968 193.173 39.8599L190.567 38.2613C190.375 38.6136 190.306 38.94 190.361 39.2405C190.418 39.5429 190.622 39.8015 190.973 40.0164C191.152 40.1265 191.369 40.2056 191.622 40.2535C191.877 40.2986 192.089 40.2948 192.257 40.2423L192.098 41.2806C191.934 41.2877 191.696 41.2632 191.384 41.2071C191.076 41.1499 190.71 40.9907 190.284 40.7296ZM190.974 37.5785L192.503 38.5163C192.689 38.2123 192.804 37.9638 192.846 37.7708C192.894 37.5767 192.89 37.4209 192.834 37.3032C192.779 37.1856 192.692 37.0904 192.573 37.0175C192.278 36.8364 191.989 36.8105 191.706 36.94C191.426 37.0665 191.181 37.2793 190.974 37.5785ZM192.95 42.2099L195.604 37.8844L196.611 38.5026L196.284 39.0848C196.503 38.9804 196.756 38.9223 197.042 38.9105C197.33 38.8959 197.639 38.9898 197.969 39.1923C198.409 39.4623 198.651 39.802 198.695 40.2114C198.739 40.6207 198.61 41.0715 198.308 41.5637L196.555 44.4212L195.443 43.7392L197.137 40.9772C197.285 40.7369 197.353 40.5118 197.342 40.302C197.333 40.0893 197.225 39.919 197.016 39.7911C196.814 39.6667 196.589 39.6328 196.344 39.6892C196.1 39.7427 195.904 39.8896 195.756 40.1299L194.062 42.8919L192.95 42.2099ZM199.36 46.2976C198.873 45.9992 198.543 45.6572 198.369 45.2716C198.197 44.8831 198.146 44.4792 198.216 44.0599C198.288 43.6377 198.446 43.2268 198.691 42.8272C198.949 42.4074 199.262 42.0694 199.63 41.8133C200.003 41.556 200.404 41.4131 200.832 41.3847C201.262 41.3581 201.695 41.478 202.129 41.7444C202.778 42.1423 203.115 42.6085 203.142 43.1429C203.171 43.6745 202.975 44.2834 202.554 44.9695C202.516 45.0303 202.468 45.1061 202.408 45.197C202.348 45.2879 202.295 45.3648 202.248 45.4279L199.643 43.8293C199.451 44.1816 199.382 44.508 199.437 44.8085C199.494 45.1109 199.698 45.3695 200.048 45.5844C200.228 45.6945 200.444 45.7736 200.698 45.8215C200.953 45.8666 201.165 45.8628 201.332 45.8103L201.174 46.8486C201.01 46.8557 200.772 46.8312 200.46 46.7751C200.152 46.7179 199.785 46.5587 199.36 46.2976ZM200.05 43.1465L201.578 44.0843C201.765 43.7803 201.88 43.5318 201.922 43.3389C201.97 43.1447 201.966 42.9889 201.91 42.8712C201.855 42.7536 201.768 42.6584 201.649 42.5855C201.354 42.4044 201.065 42.3785 200.782 42.508C200.501 42.6345 200.257 42.8474 200.05 43.1465ZM203.893 48.9236L207.607 42.8697L208.719 43.5518L205.005 49.6056L203.893 48.9236ZM206.097 50.2757L208.751 45.9503L209.75 46.563L209.424 47.1523C209.644 47.0478 209.896 46.9874 210.181 46.971C210.469 46.9564 210.781 47.0521 211.116 47.2581C211.409 47.4375 211.612 47.6519 211.726 47.9011C211.84 48.1504 211.874 48.424 211.826 48.7218C212.048 48.6069 212.31 48.5343 212.612 48.5041C212.918 48.4727 213.256 48.5707 213.627 48.7981C214.061 49.0645 214.3 49.4024 214.344 49.8118C214.387 50.2212 214.258 50.672 213.956 51.1641L212.203 54.0217L211.1 53.345L212.784 50.6003C212.931 50.36 213.004 50.1376 213.002 49.9331C213.002 49.7257 212.897 49.5581 212.689 49.4302C212.486 49.3059 212.256 49.2684 211.999 49.3177C211.743 49.3641 211.542 49.5074 211.394 49.7477L209.71 52.4924L208.599 51.8103L210.283 49.0657C210.43 48.8254 210.497 48.5956 210.484 48.3765C210.476 48.1562 210.369 47.983 210.163 47.8569C209.955 47.729 209.727 47.697 209.481 47.761C209.236 47.8221 209.04 47.9728 208.893 48.2131L207.209 50.9577L206.097 50.2757ZM212.035 56.5249L215.851 50.306L216.884 50.9401L216.799 51.0791L216.339 51.6338C216.475 51.4901 216.644 51.3904 216.845 51.3347C217.05 51.2808 217.263 51.2718 217.484 51.3078C217.709 51.3427 217.921 51.4205 218.117 51.5413C218.691 51.893 218.986 52.3508 219.002 52.9149C219.021 53.4761 218.823 54.0939 218.409 54.7685C217.945 55.5242 217.428 56.0061 216.858 56.2142C216.293 56.4213 215.751 56.3658 215.233 56.0479C214.912 55.8507 214.715 55.5928 214.644 55.274C214.575 54.957 214.585 54.6498 214.671 54.3524L214.275 55.2328L213.086 57.1697L212.035 56.5249ZM215.509 55.0335C215.648 55.1188 215.811 55.155 215.998 55.1423C216.187 55.1267 216.388 55.039 216.602 54.8791C216.815 54.7193 217.03 54.4642 217.244 54.1139C217.543 53.6275 217.674 53.2257 217.637 52.9084C217.604 52.5929 217.475 52.3668 217.253 52.23C216.983 52.0648 216.692 52.0777 216.38 52.2686C216.072 52.4584 215.793 52.7574 215.543 53.1656C215.292 53.5738 215.16 53.9489 215.146 54.2907C215.136 54.6314 215.257 54.879 215.509 55.0335ZM217.92 57.5291L220.574 53.2036L221.555 53.8058L221.138 54.6021C221.254 54.5176 221.399 54.441 221.572 54.3722C221.749 54.3052 221.949 54.2807 222.173 54.2986C222.402 54.3154 222.653 54.4073 222.925 54.5743C223.009 54.6258 223.079 54.6769 223.136 54.7275C223.192 54.7782 223.241 54.832 223.282 54.8889L222.34 55.8775C222.305 55.728 222.191 55.5946 222 55.4774C221.777 55.3406 221.566 55.2751 221.368 55.2807C221.171 55.2834 221.003 55.3199 220.864 55.3902C220.728 55.4622 220.642 55.5287 220.604 55.5895L219.006 58.1951L217.92 57.5291ZM222.819 60.6542C222.182 60.2635 221.813 59.7617 221.71 59.1491C221.608 58.5364 221.774 57.8768 222.207 57.1704C222.644 56.4582 223.164 56.0139 223.766 55.8375C224.368 55.6611 224.988 55.7683 225.625 56.1591C226.265 56.5516 226.625 57.0556 226.706 57.6709C226.791 58.2852 226.623 58.9354 226.202 59.6216C225.781 60.3077 225.271 60.7498 224.671 60.9478C224.076 61.1446 223.459 61.0468 222.819 60.6542ZM223.369 59.7963C223.92 60.1338 224.479 59.8393 225.047 58.9129C225.619 57.9806 225.63 57.3457 225.08 57.0083C224.808 56.8413 224.53 56.8202 224.246 56.945C223.964 57.0669 223.669 57.3782 223.362 57.8791C223.057 58.3771 222.913 58.7794 222.933 59.086C222.952 59.3926 223.097 59.6294 223.369 59.7963ZM226.818 62.988L227.717 57.5862L228.933 58.3322L228.353 60.9532L228.108 61.7827L228.718 61.177L230.766 59.4566L231.912 60.16L227.591 63.4623L226.818 62.988ZM231.413 65.9626C230.927 65.6642 230.597 65.3222 230.423 64.9366C230.251 64.5481 230.2 64.1441 230.27 63.7248C230.341 63.3026 230.5 62.8917 230.745 62.4922C231.003 62.0724 231.316 61.7344 231.684 61.4782C232.057 61.2209 232.457 61.0781 232.885 61.0497C233.316 61.023 233.749 61.1429 234.183 61.4094C234.831 61.8072 235.169 62.2734 235.196 62.8079C235.224 63.3394 235.028 63.9483 234.607 64.6345C234.57 64.6953 234.521 64.7711 234.462 64.862C234.402 64.9528 234.349 65.0298 234.302 65.0928L231.696 63.4942C231.504 63.8465 231.435 64.1729 231.49 64.4735C231.548 64.7758 231.752 65.0344 232.102 65.2494C232.281 65.3595 232.498 65.4385 232.751 65.4865C233.007 65.5315 233.218 65.5278 233.386 65.4752L233.227 66.5135C233.063 66.5206 232.825 66.4962 232.513 66.4401C232.205 66.3829 231.839 66.2237 231.413 65.9626ZM232.103 62.8114L233.632 63.7493C233.818 63.4453 233.933 63.1968 233.976 63.0038C234.023 62.8097 234.019 62.6538 233.964 62.5362C233.908 62.4186 233.821 62.3233 233.703 62.2505C233.407 62.0693 233.118 62.0435 232.836 62.1729C232.555 62.2995 232.311 62.5123 232.103 62.8114ZM234.079 67.4428L236.733 63.1174L237.732 63.7302L237.406 64.3194C237.626 64.215 237.878 64.1546 238.163 64.1382C238.451 64.1235 238.763 64.2192 239.099 64.4253C239.391 64.6047 239.594 64.819 239.708 65.0683C239.822 65.3176 239.856 65.5911 239.809 65.8889C240.031 65.774 240.292 65.7015 240.594 65.6712C240.9 65.6399 241.238 65.7379 241.609 65.9652C242.043 66.2317 242.282 66.5696 242.326 66.9789C242.37 67.3883 242.24 67.8391 241.938 68.3313L240.185 71.1888L239.082 70.5121L240.766 67.7675C240.914 67.5272 240.986 67.3048 240.984 67.1003C240.984 66.8929 240.879 66.7252 240.671 66.5974C240.468 66.473 240.238 66.4355 239.981 66.4848C239.725 66.5312 239.524 66.6746 239.376 66.9149L237.693 69.6595L236.581 68.9775L238.265 66.2328C238.412 65.9925 238.479 65.7628 238.466 65.5436C238.458 65.3233 238.351 65.1501 238.146 65.024C237.937 64.8961 237.71 64.8642 237.463 64.9282C237.218 64.9892 237.022 65.1399 236.875 65.3802L235.191 68.1249L234.079 67.4428ZM242.991 73.0657C242.505 72.7673 242.175 72.4253 242.001 72.0397C241.829 71.6512 241.778 71.2473 241.848 70.8279C241.919 70.4057 242.078 69.9948 242.323 69.5953C242.58 69.1755 242.893 68.8375 243.262 68.5813C243.635 68.324 244.035 68.1812 244.463 68.1528C244.894 68.1262 245.326 68.2461 245.761 68.5125C246.409 68.9104 246.747 69.3765 246.774 69.911C246.802 70.4425 246.606 71.0514 246.185 71.7376C246.148 71.7984 246.099 71.8742 246.039 71.9651C245.98 72.0559 245.927 72.1329 245.88 72.1959L243.274 70.5973C243.082 70.9496 243.013 71.2761 243.068 71.5766C243.126 71.8789 243.33 72.1376 243.68 72.3525C243.859 72.4626 244.076 72.5416 244.329 72.5896C244.585 72.6346 244.796 72.6309 244.964 72.5784L244.805 73.6166C244.641 73.6238 244.403 73.5993 244.091 73.5432C243.783 73.486 243.417 73.3268 242.991 73.0657ZM243.681 69.9145L245.21 70.8524C245.396 70.5484 245.511 70.2999 245.554 70.1069C245.601 69.9128 245.597 69.7569 245.542 69.6393C245.486 69.5217 245.399 69.4264 245.281 69.3536C244.985 69.1724 244.696 69.1466 244.414 69.276C244.133 69.4026 243.889 69.6154 243.681 69.9145ZM245.657 74.5459L248.311 70.2205L249.318 70.8386L248.991 71.4209C249.211 71.3164 249.463 71.2583 249.75 71.2466C250.038 71.232 250.347 71.3259 250.677 71.5284C251.117 71.7984 251.359 72.138 251.402 72.5474C251.446 72.9568 251.317 73.4076 251.015 73.8998L249.262 76.7573L248.15 76.0752L249.845 73.3132C249.992 73.0729 250.06 72.8479 250.05 72.638C250.041 72.4253 249.932 72.255 249.723 72.1271C249.521 72.0028 249.297 71.9688 249.051 72.0253C248.807 72.0788 248.611 72.2257 248.464 72.466L246.769 75.228L245.657 74.5459ZM251.709 78.4382C251.22 78.138 250.967 77.8072 250.949 77.4459C250.935 77.0863 251.086 76.6489 251.402 76.1335L252.633 74.1271L252.068 73.7808L252.628 72.8688L253.236 73.2418L253.856 72.3671L255.053 72.5397L254.243 73.8599L255.311 74.5153L254.752 75.4273L253.684 74.7719L252.469 76.7522C252.314 77.0041 252.241 77.2006 252.251 77.3416C252.264 77.4816 252.333 77.5897 252.458 77.6661C252.585 77.7443 252.74 77.7936 252.923 77.814C253.106 77.8345 253.259 77.8348 253.383 77.8151L253.053 78.8202C252.924 78.8288 252.772 78.8133 252.597 78.7738C252.427 78.733 252.26 78.6804 252.096 78.6159C251.934 78.556 251.805 78.4968 251.709 78.4382Z" fill="white"/>
<path d="M194.557 69.5534C194.179 69.3213 193.849 69.0233 193.568 68.6593C193.286 68.2953 193.093 67.8658 192.988 67.3708C192.888 66.8743 192.91 66.311 193.052 65.6809C193.198 65.0532 193.504 64.3591 193.971 63.5986C194.525 62.6953 195.153 62.0099 195.854 61.5422C196.562 61.073 197.288 60.8251 198.032 60.7982C198.783 60.7699 199.498 60.9642 200.177 61.381C200.721 61.7149 201.107 62.0259 201.334 62.314C201.567 62.6006 201.721 62.8914 201.795 63.1865L200.545 63.9501C200.495 63.6856 200.36 63.443 200.139 63.2226C199.918 63.0022 199.7 62.8256 199.484 62.693C199.082 62.4467 198.659 62.3521 198.215 62.409C197.775 62.4684 197.355 62.6332 196.956 62.9034C196.558 63.1698 196.224 63.4935 195.953 63.8745C195.9 63.9532 195.85 64.0261 195.803 64.0932C195.761 64.1627 195.719 64.2303 195.679 64.2959C196.134 64.0223 196.606 63.9109 197.095 63.9615C197.589 64.0146 198.046 64.1701 198.467 64.4283C198.988 64.748 199.357 65.1338 199.574 65.5857C199.797 66.036 199.883 66.5111 199.831 67.0108C199.78 67.5105 199.611 67.9939 199.324 68.461C198.959 69.0554 198.518 69.4938 197.999 69.7761C197.485 70.0607 196.93 70.1854 196.335 70.15C195.745 70.117 195.152 69.9181 194.557 69.5534ZM195.37 68.4103C195.737 68.6353 196.137 68.6893 196.57 68.5724C197.009 68.454 197.382 68.1459 197.687 67.6479C197.964 67.1962 198.088 66.773 198.06 66.3781C198.033 65.9794 197.812 65.6522 197.395 65.3964C197.14 65.2401 196.856 65.1534 196.542 65.1363C196.235 65.1177 195.94 65.1653 195.658 65.279C195.379 65.3951 195.155 65.5739 194.986 65.8153C194.799 66.1203 194.681 66.4384 194.632 66.7695C194.589 67.0992 194.625 67.4083 194.74 67.6969C194.859 67.9878 195.069 68.2256 195.37 68.4103ZM201.392 73.794C200.689 73.363 200.232 72.8353 200.02 72.2111C199.81 71.583 199.801 70.892 199.992 70.1381C200.186 69.3804 200.537 68.5885 201.043 67.7624C201.929 66.3187 202.842 65.4069 203.782 65.027C204.725 64.6495 205.662 64.7461 206.592 65.3169C207.527 65.89 208.037 66.6815 208.124 67.6913C208.212 68.7011 207.812 69.9279 206.926 71.3717C206.42 72.1978 205.872 72.8689 205.285 73.385C204.7 73.8973 204.079 74.2023 203.424 74.2999C202.772 74.3937 202.094 74.225 201.392 73.794ZM202.164 72.562C202.495 72.7657 202.837 72.7943 203.187 72.6478C203.543 72.4999 203.899 72.2238 204.253 71.8195C204.613 71.4137 204.967 70.929 205.312 70.3654C205.677 69.7709 205.955 69.2218 206.148 68.7181C206.346 68.2128 206.427 67.7736 206.39 67.4004C206.36 67.0257 206.182 66.7389 205.858 66.54C205.53 66.3387 205.188 66.307 204.833 66.4448C204.483 66.5812 204.126 66.8511 203.762 67.2545C203.4 67.654 203.037 68.151 202.672 68.7455C202.326 69.3091 202.054 69.8435 201.856 70.3488C201.663 70.8525 201.582 71.2968 201.612 71.6815C201.648 72.0648 201.832 72.3583 202.164 72.562ZM209.527 73.3497C208.863 72.9424 208.495 72.4428 208.422 71.851C208.352 71.2553 208.519 70.6274 208.924 69.9673C209.4 69.1914 209.921 68.7375 210.485 68.6056C211.052 68.4698 211.632 68.5843 212.227 68.949C212.818 69.3114 213.175 69.7724 213.299 70.3321C213.43 70.8903 213.254 71.5612 212.774 72.3448C212.511 72.7733 212.217 73.1137 211.892 73.3661C211.574 73.6169 211.216 73.7485 210.821 73.7609C210.429 73.7757 209.998 73.6386 209.527 73.3497ZM207.221 77.0832L216.597 71.7255L217.732 72.4217L208.356 77.7795L207.221 77.0832ZM210.048 72.4741C210.241 72.5925 210.421 72.6203 210.587 72.5574C210.753 72.4946 210.909 72.375 211.054 72.1985C211.202 72.0182 211.346 71.8142 211.486 71.5865C211.767 71.1271 211.931 70.757 211.975 70.4763C212.026 70.1941 211.919 69.9713 211.652 69.8078C211.397 69.6515 211.153 69.6557 210.919 69.8204C210.685 69.9851 210.434 70.2875 210.164 70.7276C209.941 71.0904 209.793 71.4272 209.719 71.738C209.645 72.0487 209.755 72.2941 210.048 72.4741ZM212.719 80.6957C212.048 80.2836 211.678 79.7809 211.612 79.1876C211.548 78.5904 211.719 77.9618 212.124 77.3017C212.597 76.5296 213.116 76.0746 213.678 75.9364C214.241 75.7983 214.82 75.9116 215.415 76.2763C216.005 76.6386 216.363 77.1028 216.489 77.6687C216.621 78.2331 216.447 78.9071 215.966 79.6908C215.705 80.1154 215.413 80.4539 215.088 80.7062C214.763 80.9586 214.403 81.0909 214.007 81.1033C213.616 81.1181 213.186 80.9822 212.719 80.6957ZM213.232 79.7826C213.432 79.9058 213.614 79.9379 213.778 79.8789C213.942 79.8199 214.096 79.7022 214.242 79.5258C214.387 79.3494 214.531 79.1453 214.673 78.9137C214.955 78.4543 215.12 78.0855 215.169 77.8071C215.22 77.5249 215.114 77.3033 214.851 77.1422C214.585 76.9788 214.337 76.9806 214.107 77.1477C213.881 77.3171 213.63 77.6257 213.356 78.0735C213.135 78.4325 212.986 78.7631 212.907 79.0652C212.834 79.3659 212.942 79.605 213.232 79.7826Z" fill="white"/>
</svg>
