<svg width="53" height="53" viewBox="0 0 53 53" fill="none" xmlns="http://www.w3.org/2000/svg">
<path d="M50.7425 2.00198C49.9679 2.00198 49.0643 2.00198 48.2897 2.00198C42.9966 2.26018 37.9618 3.42207 33.1851 5.74584C27.3757 8.45691 22.4699 12.3299 18.597 17.4938C15.8859 20.9795 13.9494 24.8524 12.5293 28.9836C12.4003 29.2418 12.5293 29.3709 12.6584 29.5C13.8203 30.6619 14.9822 31.8238 16.1441 32.9856C16.2732 33.1147 16.4023 33.3729 16.4023 33.6311C16.4023 33.8893 16.2732 34.1475 16.015 34.2766C15.7568 34.4057 15.3695 34.4057 15.2404 34.1475C14.5949 33.502 14.0785 32.9856 13.433 32.3402C12.6584 31.5656 12.013 30.791 11.2384 30.1455C10.9802 29.8873 10.8511 29.5 10.9802 29.1127C12.6584 24.0778 15.1113 19.4303 18.597 15.2991C22.0826 11.0389 26.3429 7.68232 31.1196 5.22945C35.5089 2.90567 40.2856 1.48559 45.1913 0.840093C47.2569 0.581896 49.3225 0.452797 51.388 0.581896C52.0335 0.581896 52.1626 0.840093 52.2917 1.48559C52.5499 9.877 50.4843 17.6229 45.9659 24.8524C41.4474 31.9529 35.2507 37.2459 27.5048 40.6025C26.3429 41.1189 25.0519 41.5062 23.7609 42.0226C23.3736 42.1517 23.1154 42.1517 22.8572 41.7644C21.5663 40.4734 20.1462 39.0533 18.8552 37.7623C18.597 37.5041 18.4679 37.1168 18.7261 36.7295C18.9843 36.3422 19.5007 36.3422 19.888 36.7295C21.0499 37.8914 22.2117 39.0533 23.3736 40.2152C23.6318 40.4734 23.7609 40.4734 24.0191 40.3443C29.6995 38.4078 34.7343 35.3094 38.9946 31.1783C44.0294 26.2725 47.386 20.4631 49.3225 13.8791C50.3552 10.2643 50.8716 6.52043 50.8716 2.64747C50.8716 2.38928 50.7425 2.26018 50.7425 2.00198Z" fill="#FEC536"/>
<path d="M43.6424 17.1065C43.6424 21.4958 40.1568 24.9815 35.7674 24.9815C31.3781 24.9815 27.8924 21.4958 27.8924 17.1065C27.8924 12.8462 31.3781 9.23145 35.6383 9.23145C40.1568 9.23145 43.6424 12.7171 43.6424 17.1065ZM42.0933 17.2356C42.0933 13.6208 39.2531 10.7806 35.6383 10.7806C32.0236 10.7806 29.1834 13.6208 29.1834 17.2356C29.1834 20.8503 32.0236 23.6905 35.6383 23.6905C39.2531 23.5614 42.0933 20.7212 42.0933 17.2356Z" fill="#FEC536"/>
<path d="M23.888 50.1557C24.7917 49.6393 25.6954 48.9938 26.47 48.3483C29.052 46.0245 30.472 43.1844 31.1175 39.8278C31.2466 39.3114 31.5048 39.0532 31.8921 39.0532C32.4085 39.0532 32.6667 39.4405 32.6667 39.9569C32.5376 40.6024 32.4085 41.377 32.1503 42.0225C30.7302 46.4118 28.1483 49.6393 24.1462 51.834C23.2425 52.3504 22.8552 52.0922 22.7261 51.1885C22.2097 48.4774 21.6933 45.6372 21.1769 42.9262C21.1769 42.668 21.1769 42.4098 21.1769 42.2807C21.306 42.0225 21.5642 41.8934 21.9515 41.8934C22.2097 41.8934 22.4679 42.1516 22.597 42.4098C22.7261 43.1844 22.8552 43.959 23.1134 44.8627C23.2425 46.67 23.6298 48.3483 23.888 50.1557Z" fill="#FEC536"/>
<path d="M2.58627 28.8545C3.36087 28.9836 4.13546 29.1127 4.78095 29.2418C6.58833 29.6291 8.39571 29.8873 10.074 30.2746C10.2031 30.2746 10.2031 30.2746 10.3322 30.2746C10.7195 30.4037 10.9777 30.791 10.8486 31.1782C10.7195 31.5655 10.4613 31.8237 9.9449 31.6946C8.91211 31.4364 7.75022 31.3073 6.71743 31.0492C5.03915 30.6619 3.36087 30.4037 1.55349 30.0164C1.42439 30.0164 1.42439 30.0164 1.29529 30.0164C0.649795 29.8873 0.520696 29.5 0.778893 28.8545C1.55349 27.4344 2.45718 26.0143 3.61906 24.8524C6.07194 22.2704 9.04121 20.8504 12.3978 20.0758C12.5269 20.0758 12.656 20.0758 12.656 19.9467C13.0433 19.8176 13.4306 20.0758 13.5597 20.4631C13.6888 20.8504 13.4306 21.2377 12.9142 21.3668C12.1396 21.6249 11.2359 21.754 10.4613 22.0122C7.10473 23.1741 4.52275 25.2397 2.58627 28.209C2.71537 28.5963 2.71537 28.7254 2.58627 28.8545Z" fill="#FEC536"/>
<path d="M11.7508 40.3445C11.8799 40.2154 12.009 39.9572 12.1381 39.8281C14.591 37.3752 16.9148 35.0514 19.3677 32.5985C20.2714 31.6948 21.0459 30.9203 21.9496 30.0166C22.3369 29.6293 22.7242 29.6293 23.1115 29.8875C23.3697 30.1457 23.3697 30.6621 22.9824 31.0494C20.1423 33.8895 17.3021 36.8588 14.3328 39.699C13.9455 40.0863 13.5582 40.6027 13.0418 40.9899C12.7836 41.2481 12.5254 41.2481 12.2672 41.119C11.8799 40.9899 11.7508 40.7318 11.7508 40.3445Z" fill="#FEC536"/>
<path d="M8.39376 43.7007C8.65196 43.8298 8.91016 43.9589 9.03926 44.2171C9.16836 44.4753 9.03926 44.7335 8.91016 44.9917C8.78106 45.1208 8.52286 45.379 8.39376 45.6372C6.84458 47.1863 5.2954 48.8646 3.61711 50.4138C3.35892 50.5429 3.22982 50.672 2.97162 50.672C2.71342 50.672 2.45523 50.5429 2.32613 50.2847C2.19703 49.8974 2.19703 49.6392 2.45523 49.381C3.48802 48.3482 4.5208 47.3154 5.55359 46.2827C6.32819 45.5081 6.97368 44.8626 7.74827 44.088C8.00647 43.9589 8.13557 43.8298 8.39376 43.7007Z" fill="#FEC536"/>
<path d="M7.23649 38.4077C7.88198 38.4077 8.26928 39.0532 8.01108 39.4405C7.88198 39.5696 7.88198 39.6987 7.75289 39.8278C6.0746 41.5061 4.39632 43.1844 2.71804 44.8626L2.58894 44.9917C2.20164 45.2499 1.81435 45.379 1.55615 44.9917C1.29795 44.7335 1.29795 44.2172 1.55615 43.959C2.84714 42.668 4.13812 41.377 5.42911 40.086C5.9455 39.5696 6.3328 39.1823 6.8492 38.795C6.97829 38.5368 7.23649 38.4077 7.23649 38.4077Z" fill="#FEC536"/>
<path d="M14.463 45.6377C14.463 45.7668 14.3339 45.8959 14.2048 46.1541C12.3974 47.9615 10.7192 49.6398 8.91177 51.4472C8.52448 51.8345 8.13718 51.8345 7.74989 51.4472C7.49169 51.189 7.49169 50.6726 7.87898 50.4144C9.68637 48.607 11.3646 46.9287 13.172 45.1213C13.4302 44.8631 13.6884 44.734 14.0757 44.8631C14.3339 44.9922 14.463 45.1213 14.463 45.6377Z" fill="#FEC536"/>
</svg>
