<svg width="52" height="26" viewBox="0 0 52 26" fill="none" xmlns="http://www.w3.org/2000/svg">
<path d="M9.50438 8.22362C9.11709 8.48182 8.85894 8.74001 8.34254 8.99821C7.05156 9.6437 5.76054 10.031 4.59865 10.8056C2.27488 12.3548 2.27485 14.2913 4.72772 15.5822C7.18059 16.8732 9.76257 17.7769 12.4736 18.2933C15.8302 18.9388 19.1868 19.197 22.6725 19.5843C24.0925 19.7134 25.5127 19.5843 27.0618 19.5843C27.0618 18.5515 27.1909 17.5187 27.1909 16.2277C28.7401 18.0351 30.0311 19.5843 31.4511 21.1335C30.2893 22.2954 28.8692 23.7155 27.1909 25.5228C27.1909 24.2318 27.0618 23.3282 27.0618 22.4245C23.318 22.1663 19.5741 21.9081 15.9593 21.5208C11.6991 21.0044 7.5679 20.2298 3.69495 18.1642C2.01666 17.2605 0.0802002 16.2277 0.0802002 14.0331C0.0802002 11.7093 2.01666 10.6765 3.69495 9.7728C5.37323 8.86911 7.18066 8.35272 8.98804 7.57812C9.24623 7.83632 9.37529 8.09452 9.50438 8.22362Z" fill="#FF0000"/>
<path d="M33.9026 21.7789C33.6444 19.1969 33.6443 19.326 35.7099 18.9387C39.0665 18.1641 42.423 17.2604 45.6505 16.2276C47.0706 15.8403 48.4907 14.8076 48.4907 13.1293C48.4907 11.451 46.9415 10.8055 45.7796 10.16C44.876 9.64362 43.9722 9.38542 43.0685 8.99812C42.6812 8.86902 42.4231 8.48173 42.294 7.96533C45.3923 8.61083 48.2325 9.38542 50.5562 11.7092C51.9763 13.1293 51.9763 14.8076 50.5562 16.2276C49.7816 17.0022 48.878 17.6477 47.8452 18.1641C43.5849 20.3588 38.8083 21.1334 33.9026 21.7789Z" fill="#FF0000"/>
<path d="M42.6815 0.090332C41.3906 0.090332 40.3578 1.12312 40.3578 2.41411C40.3578 3.70509 41.3906 4.73788 42.6815 4.73788C43.9725 4.73788 45.0053 3.70509 45.0053 2.41411C45.0053 1.12312 43.9725 0.090332 42.6815 0.090332ZM42.6815 3.3178C42.1652 3.3178 41.6488 2.9305 41.6488 2.28501C41.6488 1.76862 42.0361 1.25222 42.6815 1.25222C43.1979 1.25222 43.7143 1.63952 43.7143 2.28501C43.7143 2.9305 43.1979 3.3178 42.6815 3.3178Z" fill="#FF0000"/>
<path d="M19.5743 9.90206C19.5743 12.0967 17.896 13.775 15.5722 13.775C13.3776 13.775 11.6993 12.2258 11.6993 10.0312H13.6358C13.7649 11.1931 14.5394 11.9676 15.7013 11.9676C16.8632 11.9676 17.7669 11.064 17.7669 9.77296C17.7669 8.48198 16.8633 7.70739 15.4432 7.70739H14.023V7.32009L16.4759 3.57623H12.0866V1.89795H19.3161V2.28525L16.7342 6.2873C18.2833 6.6746 19.5743 8.09468 19.5743 9.90206Z" fill="#FF0000"/>
<path d="M29.7713 9.77267C29.7713 12.0964 27.9639 13.9038 25.511 13.9038C22.9291 13.9038 21.2508 12.2255 21.2508 9.77267C21.2508 8.73988 21.6381 7.44889 22.5418 5.89971L24.8655 1.76855H26.9311C25.511 4.22143 24.9947 5.25422 24.4783 6.15791C24.9947 6.02881 25.3819 5.89971 25.8983 5.89971C27.9639 5.89971 29.7713 7.44889 29.7713 9.77267ZM27.8348 9.77267C27.8348 8.35258 26.802 7.44889 25.511 7.44889C24.0909 7.44889 23.1873 8.35258 23.1873 9.77267C23.1873 11.0637 24.22 12.0964 25.511 12.0964C26.802 12.0964 27.8348 11.0637 27.8348 9.77267Z" fill="#FF0000"/>
<path d="M31.0629 7.70728C31.0629 3.96342 32.8702 1.63965 35.7104 1.63965C38.5506 1.63965 40.358 3.96342 40.358 7.70728C40.358 11.4511 38.5506 13.7749 35.7104 13.7749C32.8702 13.7749 31.0629 11.4511 31.0629 7.70728ZM38.4215 7.70728C38.4215 4.99621 37.3887 3.44703 35.7104 3.44703C34.0321 3.44703 32.9993 4.99621 32.9993 7.70728C32.9993 10.4184 34.0321 11.9675 35.7104 11.9675C37.3887 12.0966 38.4215 10.4184 38.4215 7.70728Z" fill="#FF0000"/>
</svg>
