<svg xmlns="http://www.w3.org/2000/svg" viewBox="0 0 500 500">
  <defs>
    <clipPath id="e0eb322269">
      <rect x="0" width="335" y="0" height="54"></rect>
    </clipPath>
    <clipPath id="ddd176cd25">
      <rect x="0" width="105" y="0" height="16"></rect>
    </clipPath>
  </defs>
  <g id="764e44817b" transform="matrix(1, 0, 0, 1, 564.760751, 54.685181)">
    <g transform="matrix(1,0,0,1,20,139)">
      <g clip-path="url(#e0eb322269)">
        <g style="fill:#ffffff;fill-opacity:1;">
          <g transform="translate(1.171277, 37.836718)">
            <path style="stroke:none" d="M 27.40625 -27.78125 L 26.5625 -27.78125 C 26.5 -30 26.035156 -31.582031 25.171875 -32.53125 C 24.304688 -33.476562 22.835938 -33.953125 20.765625 -33.953125 L 16.765625 -33.953125 L 16.765625 -5.4375 C 16.765625 -4.0625 16.910156 -3.054688 17.203125 -2.421875 C 17.503906 -1.785156 17.960938 -1.378906 18.578125 -1.203125 C 19.191406 -1.035156 20.148438 -0.929688 21.453125 -0.890625 L 21.453125 0 L 7.109375 0 L 7.109375 -0.890625 C 8.410156 -0.890625 9.367188 -0.976562 9.984375 -1.15625 C 10.597656 -1.332031 11.054688 -1.738281 11.359375 -2.375 C 11.660156 -3.007812 11.8125 -4.03125 11.8125 -5.4375 L 11.8125 -33.953125 L 7.859375 -33.953125 C 5.640625 -33.953125 4.125 -33.453125 3.3125 -32.453125 C 2.507812 -31.453125 2.070312 -29.894531 2 -27.78125 L 1.15625 -27.78125 L 1.15625 -35.953125 L 27.40625 -35.953125 Z M 27.40625 -27.78125 "></path>
          </g>
        </g>
        <g style="fill:#ffffff;fill-opacity:1;">
          <g transform="translate(29.744616, 37.836718)">
            <path style="stroke:none" d="M 15.078125 -35.0625 C 13.847656 -35.0625 12.925781 -34.960938 12.3125 -34.765625 C 11.695312 -34.578125 11.238281 -34.164062 10.9375 -33.53125 C 10.632812 -32.894531 10.484375 -31.894531 10.484375 -30.53125 L 10.484375 -19.875 L 23.359375 -19.875 L 23.359375 -30.578125 C 23.359375 -31.953125 23.21875 -32.945312 22.9375 -33.5625 C 22.65625 -34.175781 22.207031 -34.578125 21.59375 -34.765625 C 20.976562 -34.960938 20.019531 -35.0625 18.71875 -35.0625 L 18.71875 -35.953125 L 33.046875 -35.953125 L 33.046875 -35.0625 L 32.6875 -35.0625 C 31.53125 -35.019531 30.660156 -34.898438 30.078125 -34.703125 C 29.492188 -34.515625 29.050781 -34.101562 28.75 -33.46875 C 28.457031 -32.84375 28.3125 -31.863281 28.3125 -30.53125 L 28.3125 -5.4375 C 28.3125 -4.0625 28.457031 -3.054688 28.75 -2.421875 C 29.050781 -1.785156 29.519531 -1.367188 30.15625 -1.171875 C 30.789062 -0.984375 31.753906 -0.890625 33.046875 -0.890625 L 33.046875 0 L 18.71875 0 L 18.71875 -0.890625 L 19.1875 -0.890625 C 20.3125 -0.890625 21.160156 -1.003906 21.734375 -1.234375 C 22.316406 -1.460938 22.734375 -1.898438 22.984375 -2.546875 C 23.234375 -3.203125 23.359375 -4.164062 23.359375 -5.4375 L 23.359375 -17.875 L 10.484375 -17.875 L 10.484375 -5.4375 C 10.484375 -4.164062 10.613281 -3.203125 10.875 -2.546875 C 11.144531 -1.898438 11.5625 -1.460938 12.125 -1.234375 C 12.6875 -1.003906 13.515625 -0.890625 14.609375 -0.890625 L 15.078125 -0.890625 L 15.078125 0 L 0.953125 0 L 0.953125 -0.890625 L 1.421875 -0.890625 C 2.472656 -0.890625 3.289062 -1.003906 3.875 -1.234375 C 4.457031 -1.460938 4.878906 -1.894531 5.140625 -2.53125 C 5.398438 -3.164062 5.53125 -4.132812 5.53125 -5.4375 L 5.53125 -30.53125 C 5.53125 -32.351562 5.238281 -33.5625 4.65625 -34.15625 C 4.082031 -34.757812 3.09375 -35.0625 1.6875 -35.0625 L 0.953125 -35.0625 L 0.953125 -35.953125 L 15.078125 -35.953125 Z M 15.078125 -35.0625 "></path>
          </g>
        </g>
        <g style="fill:#ffffff;fill-opacity:1;">
          <g transform="translate(63.800661, 37.836718)">
            <path style="stroke:none" d="M 24.890625 -28.15625 L 23.9375 -28.15625 C 23.726562 -29.769531 23.421875 -30.988281 23.015625 -31.8125 C 22.609375 -32.632812 22.015625 -33.195312 21.234375 -33.5 C 20.460938 -33.800781 19.359375 -33.953125 17.921875 -33.953125 L 10.328125 -33.953125 L 10.328125 -19.875 L 16.234375 -19.875 C 17.609375 -19.875 18.644531 -20.078125 19.34375 -20.484375 C 20.050781 -20.890625 20.519531 -21.46875 20.75 -22.21875 C 20.976562 -22.976562 21.09375 -23.988281 21.09375 -25.25 L 21.984375 -25.25 L 21.984375 -12.703125 L 21.09375 -12.703125 C 21.09375 -14.492188 20.828125 -15.800781 20.296875 -16.625 C 19.765625 -17.457031 18.710938 -17.875 17.140625 -17.875 L 10.328125 -17.875 L 10.328125 -4.75 C 10.328125 -3.65625 10.476562 -2.921875 10.78125 -2.546875 C 11.082031 -2.179688 11.707031 -2 12.65625 -2 L 18.234375 -2 C 20.484375 -2 22.195312 -2.601562 23.375 -3.8125 C 24.550781 -5.03125 25.546875 -6.832031 26.359375 -9.21875 L 27.25 -8.96875 L 24.515625 0 L 0.796875 0 L 0.796875 -0.890625 C 2.054688 -0.890625 2.992188 -0.984375 3.609375 -1.171875 C 4.222656 -1.367188 4.671875 -1.785156 4.953125 -2.421875 C 5.234375 -3.054688 5.375 -4.0625 5.375 -5.4375 L 5.375 -30.625 C 5.375 -31.894531 5.25 -32.835938 5 -33.453125 C 4.757812 -34.066406 4.347656 -34.488281 3.765625 -34.71875 C 3.191406 -34.945312 2.34375 -35.0625 1.21875 -35.0625 L 0.796875 -35.0625 L 0.796875 -35.953125 L 24.359375 -35.953125 Z M 24.890625 -28.15625 "></path>
          </g>
        </g>
        <g style="fill:#ffffff;fill-opacity:1;">
          <g transform="translate(92.374, 37.836718)">
            <path style="stroke:none" d=""></path>
          </g>
        </g>
        <g style="fill:#ffffff;fill-opacity:1;">
          <g transform="translate(102.39049, 37.836718)">
            <path style="stroke:none" d="M 10.390625 -36.75 C 11.515625 -36.75 12.5 -36.632812 13.34375 -36.40625 C 14.1875 -36.175781 15.046875 -35.867188 15.921875 -35.484375 C 16.691406 -35.128906 17.21875 -34.953125 17.5 -34.953125 C 18.414062 -34.953125 19.050781 -35.550781 19.40625 -36.75 L 20.296875 -36.75 L 20.296875 -24.984375 L 19.40625 -24.984375 C 19.300781 -27.160156 18.789062 -28.988281 17.875 -30.46875 C 16.957031 -31.945312 15.863281 -33.023438 14.59375 -33.703125 C 13.332031 -34.390625 12.101562 -34.734375 10.90625 -34.734375 C 9.4375 -34.734375 8.195312 -34.285156 7.1875 -33.390625 C 6.1875 -32.492188 5.6875 -31.363281 5.6875 -30 C 5.6875 -28.726562 6.003906 -27.582031 6.640625 -26.5625 C 7.273438 -25.550781 8.171875 -24.570312 9.328125 -23.625 C 9.785156 -23.226562 11.035156 -22.347656 13.078125 -20.984375 C 15.046875 -19.648438 16.582031 -18.523438 17.6875 -17.609375 C 18.789062 -16.691406 19.710938 -15.65625 20.453125 -14.5 C 20.941406 -13.726562 21.328125 -12.847656 21.609375 -11.859375 C 21.890625 -10.878906 22.03125 -9.929688 22.03125 -9.015625 C 22.03125 -7.191406 21.59375 -5.53125 20.71875 -4.03125 C 19.84375 -2.539062 18.644531 -1.363281 17.125 -0.5 C 15.613281 0.363281 13.945312 0.796875 12.125 0.796875 C 11.144531 0.796875 10.285156 0.6875 9.546875 0.46875 C 8.804688 0.257812 7.976562 -0.0351562 7.0625 -0.421875 C 6.007812 -0.878906 5.253906 -1.109375 4.796875 -1.109375 C 3.742188 -1.109375 3.113281 -0.492188 2.90625 0.734375 L 1.890625 0.734375 L 1.890625 -11.328125 L 2.90625 -11.328125 C 3.007812 -9.117188 3.5 -7.257812 4.375 -5.75 C 5.25 -4.238281 6.34375 -3.101562 7.65625 -2.34375 C 8.976562 -1.59375 10.34375 -1.21875 11.75 -1.21875 C 13.375 -1.21875 14.703125 -1.757812 15.734375 -2.84375 C 16.773438 -3.9375 17.296875 -5.34375 17.296875 -7.0625 C 17.296875 -9.207031 16.46875 -11.070312 14.8125 -12.65625 C 13.9375 -13.5 12.425781 -14.65625 10.28125 -16.125 C 8.03125 -17.707031 6.46875 -18.90625 5.59375 -19.71875 C 4.320312 -20.84375 3.34375 -22.046875 2.65625 -23.328125 C 1.976562 -24.609375 1.640625 -26.078125 1.640625 -27.734375 C 1.640625 -30.367188 2.445312 -32.53125 4.0625 -34.21875 C 5.675781 -35.90625 7.785156 -36.75 10.390625 -36.75 Z M 10.390625 -36.75 "></path>
          </g>
        </g>
        <g style="fill:#ffffff;fill-opacity:1;">
          <g transform="translate(126.008306, 37.836718)">
            <path style="stroke:none" d="M 15.28125 -35.0625 C 14.195312 -35.0625 13.375 -34.953125 12.8125 -34.734375 C 12.25 -34.523438 11.828125 -34.101562 11.546875 -33.46875 C 11.265625 -32.84375 11.125 -31.878906 11.125 -30.578125 L 11.125 -18.140625 L 11.234375 -18.140625 L 20.34375 -29.734375 C 21.125 -30.679688 21.695312 -31.460938 22.0625 -32.078125 C 22.425781 -32.691406 22.609375 -33.226562 22.609375 -33.6875 C 22.609375 -34.601562 21.765625 -35.0625 20.078125 -35.0625 L 19.609375 -35.0625 L 19.609375 -35.953125 L 30.6875 -35.953125 L 30.6875 -35.0625 C 29.132812 -34.988281 27.835938 -34.566406 26.796875 -33.796875 C 25.765625 -33.023438 24.40625 -31.582031 22.71875 -29.46875 L 15.390625 -20.25 L 28.578125 -3.265625 C 29.273438 -2.316406 30.035156 -1.679688 30.859375 -1.359375 C 31.691406 -1.046875 32.757812 -0.890625 34.0625 -0.890625 L 34.0625 0 L 19.921875 0 L 19.921875 -0.890625 C 20.804688 -0.890625 21.445312 -1.015625 21.84375 -1.265625 C 22.25 -1.515625 22.453125 -1.898438 22.453125 -2.421875 C 22.453125 -2.847656 22.328125 -3.234375 22.078125 -3.578125 C 21.835938 -3.929688 21.679688 -4.144531 21.609375 -4.21875 L 11.234375 -18.078125 L 11.125 -18.078125 L 11.125 -5.4375 C 11.125 -3.601562 11.40625 -2.382812 11.96875 -1.78125 C 12.53125 -1.1875 13.515625 -0.890625 14.921875 -0.890625 L 15.28125 -0.890625 L 15.28125 0 L 2.0625 0 L 2.0625 -0.890625 C 3.144531 -0.929688 3.96875 -1.046875 4.53125 -1.234375 C 5.09375 -1.429688 5.503906 -1.851562 5.765625 -2.5 C 6.035156 -3.15625 6.171875 -4.132812 6.171875 -5.4375 L 6.171875 -30.578125 C 6.171875 -31.878906 6.03125 -32.84375 5.75 -33.46875 C 5.46875 -34.101562 5.046875 -34.515625 4.484375 -34.703125 C 3.921875 -34.898438 3.113281 -35.019531 2.0625 -35.0625 L 2.0625 -35.953125 L 15.28125 -35.953125 Z M 15.28125 -35.0625 "></path>
          </g>
        </g>
        <g style="fill:#ffffff;fill-opacity:1;">
          <g transform="translate(160.064351, 37.836718)">
            <path style="stroke:none" d="M 14.609375 -35.0625 C 13.441406 -35.0625 12.5625 -34.960938 11.96875 -34.765625 C 11.375 -34.578125 10.925781 -34.164062 10.625 -33.53125 C 10.320312 -32.894531 10.171875 -31.910156 10.171875 -30.578125 L 10.171875 -5.4375 C 10.171875 -4.0625 10.320312 -3.054688 10.625 -2.421875 C 10.925781 -1.785156 11.363281 -1.378906 11.9375 -1.203125 C 12.519531 -1.035156 13.410156 -0.929688 14.609375 -0.890625 L 14.609375 0 L 0.796875 0 L 0.796875 -0.890625 C 1.953125 -0.890625 2.835938 -0.992188 3.453125 -1.203125 C 4.066406 -1.421875 4.515625 -1.84375 4.796875 -2.46875 C 5.078125 -3.101562 5.21875 -4.09375 5.21875 -5.4375 L 5.21875 -30.578125 C 5.21875 -31.910156 5.066406 -32.882812 4.765625 -33.5 C 4.472656 -34.113281 4.035156 -34.515625 3.453125 -34.703125 C 2.867188 -34.898438 1.984375 -35.019531 0.796875 -35.0625 L 0.796875 -35.953125 L 14.609375 -35.953125 Z M 14.609375 -35.0625 "></path>
          </g>
        </g>
        <g style="fill:#ffffff;fill-opacity:1;">
          <g transform="translate(175.458103, 37.836718)">
            <path style="stroke:none" d="M 26.625 -10.015625 L 26.734375 -10.015625 L 26.734375 -30.578125 C 26.734375 -31.910156 26.582031 -32.894531 26.28125 -33.53125 C 25.976562 -34.164062 25.5 -34.578125 24.84375 -34.765625 C 24.195312 -34.960938 23.257812 -35.0625 22.03125 -35.0625 L 22.03125 -35.953125 L 32.421875 -35.953125 L 32.421875 -35.0625 C 31.117188 -35.0625 30.175781 -34.78125 29.59375 -34.21875 C 29.019531 -33.65625 28.734375 -32.738281 28.734375 -31.46875 L 28.734375 0.578125 L 28 0.578125 L 7.53125 -28.578125 L 7.4375 -28.578125 L 7.4375 -5.4375 C 7.4375 -4.132812 7.578125 -3.15625 7.859375 -2.5 C 8.140625 -1.851562 8.578125 -1.429688 9.171875 -1.234375 C 9.765625 -1.046875 10.625 -0.929688 11.75 -0.890625 L 12.5 -0.890625 L 12.5 0 L 1.375 0 L 1.375 -0.890625 C 2.84375 -0.960938 3.882812 -1.242188 4.5 -1.734375 C 5.125 -2.234375 5.4375 -3.21875 5.4375 -4.6875 L 5.4375 -31.46875 C 5.289062 -31.644531 5.140625 -31.847656 4.984375 -32.078125 C 4.828125 -32.304688 4.640625 -32.546875 4.421875 -32.796875 C 3.753906 -33.703125 3.203125 -34.304688 2.765625 -34.609375 C 2.328125 -34.910156 1.597656 -35.0625 0.578125 -35.0625 L 0.578125 -35.953125 L 8.375 -35.953125 Z M 26.625 -10.015625 "></path>
          </g>
        </g>
        <g style="fill:#ffffff;fill-opacity:1;">
          <g transform="translate(209.514148, 37.836718)">
            <path style="stroke:none" d=""></path>
          </g>
        </g>
        <g style="fill:#ffffff;fill-opacity:1;">
          <g transform="translate(219.530638, 37.836718)">
            <path style="stroke:none" d="M 27.40625 -28.25 L 26.46875 -28.25 C 26.394531 -30.082031 25.890625 -31.488281 24.953125 -32.46875 C 24.023438 -33.457031 22.71875 -33.953125 21.03125 -33.953125 L 10.65625 -33.953125 L 10.65625 -19.875 L 16.765625 -19.875 C 18.523438 -19.875 19.765625 -20.242188 20.484375 -20.984375 C 21.203125 -21.722656 21.5625 -22.847656 21.5625 -24.359375 L 21.5625 -24.984375 L 22.453125 -24.984375 L 22.453125 -12.703125 L 21.5625 -12.703125 L 21.5625 -13.171875 C 21.5625 -14.753906 21.28125 -15.929688 20.71875 -16.703125 C 20.15625 -17.484375 19.082031 -17.875 17.5 -17.875 L 10.65625 -17.875 L 10.65625 -5.375 C 10.65625 -4.039062 10.800781 -3.054688 11.09375 -2.421875 C 11.394531 -1.785156 11.867188 -1.367188 12.515625 -1.171875 C 13.171875 -0.984375 14.164062 -0.890625 15.5 -0.890625 L 15.5 0 L 1.15625 0 L 1.15625 -0.890625 C 2.382812 -0.890625 3.316406 -0.992188 3.953125 -1.203125 C 4.585938 -1.421875 5.035156 -1.84375 5.296875 -2.46875 C 5.554688 -3.101562 5.6875 -4.070312 5.6875 -5.375 L 5.6875 -30.625 C 5.6875 -32 5.5625 -32.984375 5.3125 -33.578125 C 5.070312 -34.179688 4.648438 -34.566406 4.046875 -34.734375 C 3.453125 -34.910156 2.488281 -35.019531 1.15625 -35.0625 L 1.15625 -35.953125 L 27.15625 -35.953125 Z M 27.40625 -28.25 "></path>
          </g>
        </g>
        <g style="fill:#ffffff;fill-opacity:1;">
          <g transform="translate(248.10399, 37.836718)">
            <path style="stroke:none" d="M 14.609375 -35.0625 C 13.441406 -35.0625 12.5625 -34.960938 11.96875 -34.765625 C 11.375 -34.578125 10.925781 -34.164062 10.625 -33.53125 C 10.320312 -32.894531 10.171875 -31.910156 10.171875 -30.578125 L 10.171875 -5.4375 C 10.171875 -4.0625 10.320312 -3.054688 10.625 -2.421875 C 10.925781 -1.785156 11.363281 -1.378906 11.9375 -1.203125 C 12.519531 -1.035156 13.410156 -0.929688 14.609375 -0.890625 L 14.609375 0 L 0.796875 0 L 0.796875 -0.890625 C 1.953125 -0.890625 2.835938 -0.992188 3.453125 -1.203125 C 4.066406 -1.421875 4.515625 -1.84375 4.796875 -2.46875 C 5.078125 -3.101562 5.21875 -4.09375 5.21875 -5.4375 L 5.21875 -30.578125 C 5.21875 -31.910156 5.066406 -32.882812 4.765625 -33.5 C 4.472656 -34.113281 4.035156 -34.515625 3.453125 -34.703125 C 2.867188 -34.898438 1.984375 -35.019531 0.796875 -35.0625 L 0.796875 -35.953125 L 14.609375 -35.953125 Z M 14.609375 -35.0625 "></path>
          </g>
        </g>
        <g style="fill:#ffffff;fill-opacity:1;">
          <g transform="translate(263.497728, 37.836718)">
            <path style="stroke:none" d="M 26.40625 -26.9375 C 26.40625 -24.6875 25.628906 -22.71875 24.078125 -21.03125 C 22.535156 -19.34375 20.414062 -18.238281 17.71875 -17.71875 L 26.25 -3.796875 C 26.914062 -2.671875 27.515625 -1.90625 28.046875 -1.5 C 28.578125 -1.09375 29.226562 -0.890625 30 -0.890625 L 30.3125 -0.890625 L 30.3125 0 L 23.40625 0 L 12.96875 -17.078125 L 10.546875 -17.078125 L 10.546875 -5.375 C 10.546875 -4.007812 10.6875 -3.015625 10.96875 -2.390625 C 11.25 -1.773438 11.695312 -1.367188 12.3125 -1.171875 C 12.925781 -0.984375 13.882812 -0.890625 15.1875 -0.890625 L 15.1875 0 L 0.890625 0 L 0.890625 -0.890625 C 2.191406 -0.890625 3.160156 -0.984375 3.796875 -1.171875 C 4.429688 -1.367188 4.890625 -1.785156 5.171875 -2.421875 C 5.453125 -3.054688 5.59375 -4.039062 5.59375 -5.375 L 5.59375 -30.53125 C 5.59375 -31.894531 5.441406 -32.894531 5.140625 -33.53125 C 4.835938 -34.164062 4.367188 -34.578125 3.734375 -34.765625 C 3.109375 -34.960938 2.160156 -35.0625 0.890625 -35.0625 L 0.890625 -35.953125 L 15.875 -35.953125 C 17.84375 -35.953125 19.632812 -35.566406 21.25 -34.796875 C 22.863281 -34.023438 24.125 -32.953125 25.03125 -31.578125 C 25.945312 -30.203125 26.40625 -28.65625 26.40625 -26.9375 Z M 10.546875 -33.375 L 10.546875 -18.765625 L 12.28125 -18.765625 C 15.09375 -18.765625 17.164062 -19.519531 18.5 -21.03125 C 19.832031 -22.539062 20.5 -24.332031 20.5 -26.40625 C 20.5 -28.625 19.898438 -30.460938 18.703125 -31.921875 C 17.515625 -33.378906 15.898438 -34.109375 13.859375 -34.109375 C 12.671875 -34.109375 11.566406 -33.863281 10.546875 -33.375 Z M 10.546875 -33.375 "></path>
          </g>
        </g>
        <g style="fill:#ffffff;fill-opacity:1;">
          <g transform="translate(294.812414, 37.836718)">
            <path style="stroke:none" d="M 19.828125 -9.4375 L 19.921875 -9.4375 L 29.515625 -35.953125 L 38.28125 -35.953125 L 38.28125 -35.0625 C 37.289062 -35.019531 36.53125 -34.894531 36 -34.6875 C 35.476562 -34.476562 35.09375 -34.054688 34.84375 -33.421875 C 34.601562 -32.785156 34.484375 -31.835938 34.484375 -30.578125 L 34.484375 -5.4375 C 34.484375 -4.132812 34.601562 -3.164062 34.84375 -2.53125 C 35.09375 -1.894531 35.476562 -1.472656 36 -1.265625 C 36.53125 -1.054688 37.289062 -0.929688 38.28125 -0.890625 L 38.28125 0 L 25.046875 0 L 25.046875 -0.890625 C 26.234375 -0.890625 27.125 -0.984375 27.71875 -1.171875 C 28.320312 -1.367188 28.769531 -1.789062 29.0625 -2.4375 C 29.363281 -3.09375 29.515625 -4.09375 29.515625 -5.4375 L 29.515625 -29.890625 L 29.421875 -29.890625 L 18.65625 0 L 18.03125 0 L 7.375 -29.265625 L 7.28125 -29.265625 L 7.28125 -5.4375 C 7.28125 -4.0625 7.421875 -3.054688 7.703125 -2.421875 C 7.984375 -1.785156 8.410156 -1.378906 8.984375 -1.203125 C 9.566406 -1.035156 10.457031 -0.929688 11.65625 -0.890625 L 11.65625 0 L 1.046875 0 L 1.046875 -0.890625 C 2.171875 -0.929688 3.023438 -1.046875 3.609375 -1.234375 C 4.191406 -1.429688 4.613281 -1.84375 4.875 -2.46875 C 5.132812 -3.101562 5.265625 -4.09375 5.265625 -5.4375 L 5.265625 -30.578125 C 5.265625 -31.878906 5.132812 -32.835938 4.875 -33.453125 C 4.613281 -34.066406 4.191406 -34.476562 3.609375 -34.6875 C 3.023438 -34.894531 2.171875 -35.019531 1.046875 -35.0625 L 1.046875 -35.953125 L 10.234375 -35.953125 Z M 19.828125 -9.4375 "></path>
          </g>
        </g>
      </g>
    </g>
    <path style="fill:none;stroke-width:1;stroke-linecap:butt;stroke-linejoin:miter;stroke:#ffffff;stroke-opacity:1;stroke-miterlimit:4;" d="M -0.0016817 0.498455 L 184.237914 0.498455 " transform="matrix(0.75,0,0,0.75,118.411418,211.161315)"></path>
    <g transform="matrix(1,0,0,1,135,224)">
      <g clip-path="url(#ddd176cd25)">
        <g style="fill:#ffffff;fill-opacity:1;">
          <g transform="translate(1.22652, 10.553417)">
            <path style="stroke:none" d="M 2.484375 -8.78125 C 2.753906 -8.78125 2.988281 -8.753906 3.1875 -8.703125 C 3.394531 -8.648438 3.601562 -8.578125 3.8125 -8.484375 C 3.988281 -8.398438 4.113281 -8.359375 4.1875 -8.359375 C 4.40625 -8.359375 4.554688 -8.5 4.640625 -8.78125 L 4.859375 -8.78125 L 4.859375 -5.984375 L 4.640625 -5.984375 C 4.617188 -6.503906 4.5 -6.9375 4.28125 -7.28125 C 4.0625 -7.632812 3.796875 -7.894531 3.484375 -8.0625 C 3.179688 -8.226562 2.890625 -8.3125 2.609375 -8.3125 C 2.253906 -8.3125 1.957031 -8.203125 1.71875 -7.984375 C 1.476562 -7.773438 1.359375 -7.503906 1.359375 -7.171875 C 1.359375 -6.867188 1.429688 -6.59375 1.578125 -6.34375 C 1.734375 -6.101562 1.953125 -5.875 2.234375 -5.65625 C 2.335938 -5.5625 2.632812 -5.347656 3.125 -5.015625 C 3.59375 -4.703125 3.957031 -4.4375 4.21875 -4.21875 C 4.488281 -4 4.710938 -3.75 4.890625 -3.46875 C 5.003906 -3.28125 5.09375 -3.066406 5.15625 -2.828125 C 5.226562 -2.597656 5.265625 -2.375 5.265625 -2.15625 C 5.265625 -1.71875 5.160156 -1.316406 4.953125 -0.953125 C 4.742188 -0.597656 4.457031 -0.316406 4.09375 -0.109375 C 3.738281 0.0859375 3.34375 0.1875 2.90625 0.1875 C 2.664062 0.1875 2.457031 0.160156 2.28125 0.109375 C 2.101562 0.0546875 1.90625 -0.0078125 1.6875 -0.09375 C 1.4375 -0.207031 1.253906 -0.265625 1.140625 -0.265625 C 0.890625 -0.265625 0.738281 -0.117188 0.6875 0.171875 L 0.453125 0.171875 L 0.453125 -2.71875 L 0.6875 -2.71875 C 0.71875 -2.1875 0.835938 -1.738281 1.046875 -1.375 C 1.253906 -1.007812 1.515625 -0.738281 1.828125 -0.5625 C 2.148438 -0.382812 2.476562 -0.296875 2.8125 -0.296875 C 3.195312 -0.296875 3.515625 -0.425781 3.765625 -0.6875 C 4.015625 -0.945312 4.140625 -1.28125 4.140625 -1.6875 C 4.140625 -2.195312 3.941406 -2.644531 3.546875 -3.03125 C 3.335938 -3.226562 2.972656 -3.503906 2.453125 -3.859375 C 1.921875 -4.234375 1.550781 -4.519531 1.34375 -4.71875 C 1.03125 -4.988281 0.789062 -5.273438 0.625 -5.578125 C 0.46875 -5.890625 0.390625 -6.238281 0.390625 -6.625 C 0.390625 -7.257812 0.582031 -7.773438 0.96875 -8.171875 C 1.351562 -8.578125 1.859375 -8.78125 2.484375 -8.78125 Z M 2.484375 -8.78125 "></path>
          </g>
        </g>
        <g style="fill:#ffffff;fill-opacity:1;">
          <g transform="translate(6.870744, 10.553417)">
            <path style="stroke:none" d="M 3.65625 -8.390625 C 3.394531 -8.390625 3.195312 -8.363281 3.0625 -8.3125 C 2.925781 -8.257812 2.820312 -8.15625 2.75 -8 C 2.6875 -7.851562 2.65625 -7.625 2.65625 -7.3125 L 2.65625 -4.34375 L 2.6875 -4.34375 L 4.875 -7.109375 C 5.050781 -7.335938 5.179688 -7.523438 5.265625 -7.671875 C 5.359375 -7.816406 5.40625 -7.945312 5.40625 -8.0625 C 5.40625 -8.28125 5.203125 -8.390625 4.796875 -8.390625 L 4.6875 -8.390625 L 4.6875 -8.59375 L 7.34375 -8.59375 L 7.34375 -8.390625 C 6.96875 -8.367188 6.65625 -8.265625 6.40625 -8.078125 C 6.164062 -7.898438 5.84375 -7.554688 5.4375 -7.046875 L 3.6875 -4.84375 L 6.828125 -0.78125 C 7.003906 -0.550781 7.1875 -0.398438 7.375 -0.328125 C 7.570312 -0.253906 7.828125 -0.21875 8.140625 -0.21875 L 8.140625 0 L 4.765625 0 L 4.765625 -0.21875 C 4.972656 -0.21875 5.125 -0.242188 5.21875 -0.296875 C 5.320312 -0.359375 5.375 -0.453125 5.375 -0.578125 C 5.375 -0.679688 5.34375 -0.773438 5.28125 -0.859375 C 5.21875 -0.941406 5.179688 -0.992188 5.171875 -1.015625 L 2.6875 -4.328125 L 2.65625 -4.328125 L 2.65625 -1.296875 C 2.65625 -0.859375 2.722656 -0.566406 2.859375 -0.421875 C 2.992188 -0.285156 3.226562 -0.21875 3.5625 -0.21875 L 3.65625 -0.21875 L 3.65625 0 L 0.484375 0 L 0.484375 -0.21875 C 0.742188 -0.226562 0.941406 -0.253906 1.078125 -0.296875 C 1.210938 -0.335938 1.3125 -0.4375 1.375 -0.59375 C 1.4375 -0.75 1.46875 -0.984375 1.46875 -1.296875 L 1.46875 -7.3125 C 1.46875 -7.625 1.4375 -7.851562 1.375 -8 C 1.3125 -8.15625 1.210938 -8.253906 1.078125 -8.296875 C 0.941406 -8.347656 0.742188 -8.378906 0.484375 -8.390625 L 0.484375 -8.59375 L 3.65625 -8.59375 Z M 3.65625 -8.390625 "></path>
          </g>
        </g>
        <g style="fill:#ffffff;fill-opacity:1;">
          <g transform="translate(15.009512, 10.553417)">
            <path style="stroke:none" d="M 3.5 -8.390625 C 3.21875 -8.390625 3.003906 -8.363281 2.859375 -8.3125 C 2.710938 -8.269531 2.601562 -8.171875 2.53125 -8.015625 C 2.46875 -7.867188 2.4375 -7.632812 2.4375 -7.3125 L 2.4375 -1.296875 C 2.4375 -0.972656 2.46875 -0.734375 2.53125 -0.578125 C 2.601562 -0.429688 2.707031 -0.335938 2.84375 -0.296875 C 2.988281 -0.253906 3.207031 -0.226562 3.5 -0.21875 L 3.5 0 L 0.1875 0 L 0.1875 -0.21875 C 0.46875 -0.21875 0.679688 -0.238281 0.828125 -0.28125 C 0.972656 -0.332031 1.078125 -0.429688 1.140625 -0.578125 C 1.210938 -0.734375 1.25 -0.972656 1.25 -1.296875 L 1.25 -7.3125 C 1.25 -7.632812 1.210938 -7.867188 1.140625 -8.015625 C 1.066406 -8.160156 0.960938 -8.253906 0.828125 -8.296875 C 0.691406 -8.347656 0.476562 -8.378906 0.1875 -8.390625 L 0.1875 -8.59375 L 3.5 -8.59375 Z M 3.5 -8.390625 "></path>
          </g>
        </g>
        <g style="fill:#ffffff;fill-opacity:1;">
          <g transform="translate(18.688342, 10.553417)">
            <path style="stroke:none" d="M 6.375 -2.390625 L 6.390625 -2.390625 L 6.390625 -7.3125 C 6.390625 -7.632812 6.351562 -7.867188 6.28125 -8.015625 C 6.207031 -8.171875 6.09375 -8.269531 5.9375 -8.3125 C 5.789062 -8.363281 5.566406 -8.390625 5.265625 -8.390625 L 5.265625 -8.59375 L 7.75 -8.59375 L 7.75 -8.390625 C 7.4375 -8.390625 7.210938 -8.320312 7.078125 -8.1875 C 6.941406 -8.050781 6.875 -7.832031 6.875 -7.53125 L 6.875 0.140625 L 6.703125 0.140625 L 1.796875 -6.828125 L 1.78125 -6.828125 L 1.78125 -1.296875 C 1.78125 -0.984375 1.8125 -0.75 1.875 -0.59375 C 1.945312 -0.4375 2.050781 -0.335938 2.1875 -0.296875 C 2.332031 -0.253906 2.539062 -0.226562 2.8125 -0.21875 L 2.984375 -0.21875 L 2.984375 0 L 0.328125 0 L 0.328125 -0.21875 C 0.679688 -0.226562 0.929688 -0.289062 1.078125 -0.40625 C 1.222656 -0.53125 1.296875 -0.769531 1.296875 -1.125 L 1.296875 -7.53125 C 1.265625 -7.570312 1.226562 -7.617188 1.1875 -7.671875 C 1.15625 -7.722656 1.113281 -7.78125 1.0625 -7.84375 C 0.894531 -8.0625 0.757812 -8.207031 0.65625 -8.28125 C 0.550781 -8.351562 0.378906 -8.390625 0.140625 -8.390625 L 0.140625 -8.59375 L 2 -8.59375 Z M 6.375 -2.390625 "></path>
          </g>
        </g>
        <g style="fill:#ffffff;fill-opacity:1;">
          <g transform="translate(26.82711, 10.553417)">
            <path style="stroke:none" d=""></path>
          </g>
        </g>
        <g style="fill:#ffffff;fill-opacity:1;">
          <g transform="translate(29.220866, 10.553417)">
            <path style="stroke:none" d="M 1.578125 -1.21875 C 1.765625 -1.21875 1.921875 -1.148438 2.046875 -1.015625 C 2.179688 -0.890625 2.25 -0.734375 2.25 -0.546875 C 2.25 -0.347656 2.179688 -0.179688 2.046875 -0.046875 C 1.921875 0.0859375 1.765625 0.15625 1.578125 0.15625 C 1.390625 0.15625 1.222656 0.0859375 1.078125 -0.046875 C 0.941406 -0.191406 0.875 -0.359375 0.875 -0.546875 C 0.875 -0.722656 0.941406 -0.878906 1.078125 -1.015625 C 1.210938 -1.148438 1.378906 -1.21875 1.578125 -1.21875 Z M 1.578125 -1.21875 "></path>
          </g>
        </g>
        <g style="fill:#ffffff;fill-opacity:1;">
          <g transform="translate(32.370545, 10.553417)">
            <path style="stroke:none" d=""></path>
          </g>
        </g>
        <g style="fill:#ffffff;fill-opacity:1;">
          <g transform="translate(34.764301, 10.553417)">
            <path style="stroke:none" d="M 3.609375 -8.390625 C 3.316406 -8.390625 3.09375 -8.363281 2.9375 -8.3125 C 2.789062 -8.269531 2.679688 -8.171875 2.609375 -8.015625 C 2.546875 -7.867188 2.515625 -7.628906 2.515625 -7.296875 L 2.515625 -4.75 L 5.59375 -4.75 L 5.59375 -7.3125 C 5.59375 -7.644531 5.554688 -7.882812 5.484375 -8.03125 C 5.421875 -8.175781 5.3125 -8.269531 5.15625 -8.3125 C 5.007812 -8.363281 4.78125 -8.390625 4.46875 -8.390625 L 4.46875 -8.59375 L 7.90625 -8.59375 L 7.90625 -8.390625 L 7.8125 -8.390625 C 7.539062 -8.378906 7.332031 -8.347656 7.1875 -8.296875 C 7.050781 -8.253906 6.945312 -8.15625 6.875 -8 C 6.800781 -7.851562 6.765625 -7.617188 6.765625 -7.296875 L 6.765625 -1.296875 C 6.765625 -0.972656 6.800781 -0.734375 6.875 -0.578125 C 6.945312 -0.429688 7.054688 -0.332031 7.203125 -0.28125 C 7.359375 -0.238281 7.59375 -0.21875 7.90625 -0.21875 L 7.90625 0 L 4.46875 0 L 4.46875 -0.21875 L 4.59375 -0.21875 C 4.863281 -0.21875 5.066406 -0.242188 5.203125 -0.296875 C 5.335938 -0.347656 5.4375 -0.453125 5.5 -0.609375 C 5.5625 -0.765625 5.59375 -0.992188 5.59375 -1.296875 L 5.59375 -4.28125 L 2.515625 -4.28125 L 2.515625 -1.296875 C 2.515625 -0.992188 2.546875 -0.765625 2.609375 -0.609375 C 2.671875 -0.453125 2.769531 -0.347656 2.90625 -0.296875 C 3.039062 -0.242188 3.238281 -0.21875 3.5 -0.21875 L 3.609375 -0.21875 L 3.609375 0 L 0.234375 0 L 0.234375 -0.21875 L 0.34375 -0.21875 C 0.59375 -0.21875 0.785156 -0.242188 0.921875 -0.296875 C 1.066406 -0.347656 1.171875 -0.445312 1.234375 -0.59375 C 1.296875 -0.75 1.328125 -0.984375 1.328125 -1.296875 L 1.328125 -7.296875 C 1.328125 -7.734375 1.253906 -8.023438 1.109375 -8.171875 C 0.972656 -8.316406 0.738281 -8.390625 0.40625 -8.390625 L 0.234375 -8.390625 L 0.234375 -8.59375 L 3.609375 -8.59375 Z M 3.609375 -8.390625 "></path>
          </g>
        </g>
        <g style="fill:#ffffff;fill-opacity:1;">
          <g transform="translate(42.903069, 10.553417)">
            <path style="stroke:none" d="M 3.75 -8.78125 L 5.9375 -2 C 6.132812 -1.375 6.273438 -0.953125 6.359375 -0.734375 C 6.453125 -0.523438 6.554688 -0.382812 6.671875 -0.3125 C 6.796875 -0.25 6.992188 -0.21875 7.265625 -0.21875 L 7.265625 0 L 4.328125 0 L 4.328125 -0.21875 C 4.585938 -0.21875 4.773438 -0.253906 4.890625 -0.328125 C 5.003906 -0.398438 5.0625 -0.523438 5.0625 -0.703125 C 5.0625 -0.828125 5.019531 -1.019531 4.9375 -1.28125 L 4.453125 -2.75 L 2.28125 -2.75 L 1.8125 -1.15625 C 1.757812 -0.9375 1.734375 -0.785156 1.734375 -0.703125 C 1.734375 -0.515625 1.796875 -0.382812 1.921875 -0.3125 C 2.054688 -0.25 2.269531 -0.21875 2.5625 -0.21875 L 2.5625 0 L 0.234375 0 L 0.234375 -0.21875 C 0.554688 -0.21875 0.785156 -0.300781 0.921875 -0.46875 C 1.066406 -0.644531 1.210938 -0.972656 1.359375 -1.453125 L 3.5625 -8.78125 Z M 2.421875 -3.234375 L 4.296875 -3.234375 L 3.328125 -6.296875 L 3.296875 -6.296875 Z M 2.421875 -3.234375 "></path>
          </g>
        </g>
        <g style="fill:#ffffff;fill-opacity:1;">
          <g transform="translate(50.386702, 10.553417)">
            <path style="stroke:none" d="M 3.5 -8.390625 C 3.21875 -8.390625 3.003906 -8.363281 2.859375 -8.3125 C 2.710938 -8.269531 2.601562 -8.171875 2.53125 -8.015625 C 2.46875 -7.867188 2.4375 -7.632812 2.4375 -7.3125 L 2.4375 -1.296875 C 2.4375 -0.972656 2.46875 -0.734375 2.53125 -0.578125 C 2.601562 -0.429688 2.707031 -0.335938 2.84375 -0.296875 C 2.988281 -0.253906 3.207031 -0.226562 3.5 -0.21875 L 3.5 0 L 0.1875 0 L 0.1875 -0.21875 C 0.46875 -0.21875 0.679688 -0.238281 0.828125 -0.28125 C 0.972656 -0.332031 1.078125 -0.429688 1.140625 -0.578125 C 1.210938 -0.734375 1.25 -0.972656 1.25 -1.296875 L 1.25 -7.3125 C 1.25 -7.632812 1.210938 -7.867188 1.140625 -8.015625 C 1.066406 -8.160156 0.960938 -8.253906 0.828125 -8.296875 C 0.691406 -8.347656 0.476562 -8.378906 0.1875 -8.390625 L 0.1875 -8.59375 L 3.5 -8.59375 Z M 3.5 -8.390625 "></path>
          </g>
        </g>
        <g style="fill:#ffffff;fill-opacity:1;">
          <g transform="translate(54.065532, 10.553417)">
            <path style="stroke:none" d="M 6.3125 -6.4375 C 6.3125 -5.90625 6.125 -5.4375 5.75 -5.03125 C 5.382812 -4.625 4.878906 -4.359375 4.234375 -4.234375 L 6.28125 -0.90625 C 6.4375 -0.632812 6.578125 -0.453125 6.703125 -0.359375 C 6.828125 -0.265625 6.984375 -0.21875 7.171875 -0.21875 L 7.25 -0.21875 L 7.25 0 L 5.59375 0 L 3.109375 -4.078125 L 2.515625 -4.078125 L 2.515625 -1.28125 C 2.515625 -0.957031 2.546875 -0.722656 2.609375 -0.578125 C 2.679688 -0.429688 2.789062 -0.332031 2.9375 -0.28125 C 3.09375 -0.238281 3.320312 -0.21875 3.625 -0.21875 L 3.625 0 L 0.21875 0 L 0.21875 -0.21875 C 0.53125 -0.21875 0.757812 -0.238281 0.90625 -0.28125 C 1.0625 -0.332031 1.171875 -0.429688 1.234375 -0.578125 C 1.304688 -0.734375 1.34375 -0.96875 1.34375 -1.28125 L 1.34375 -7.296875 C 1.34375 -7.628906 1.304688 -7.867188 1.234375 -8.015625 C 1.160156 -8.171875 1.046875 -8.269531 0.890625 -8.3125 C 0.742188 -8.363281 0.519531 -8.390625 0.21875 -8.390625 L 0.21875 -8.59375 L 3.796875 -8.59375 C 4.265625 -8.59375 4.691406 -8.5 5.078125 -8.3125 C 5.460938 -8.132812 5.765625 -7.878906 5.984375 -7.546875 C 6.203125 -7.222656 6.3125 -6.851562 6.3125 -6.4375 Z M 2.515625 -7.984375 L 2.515625 -4.484375 L 2.9375 -4.484375 C 3.613281 -4.484375 4.109375 -4.664062 4.421875 -5.03125 C 4.742188 -5.394531 4.90625 -5.820312 4.90625 -6.3125 C 4.90625 -6.84375 4.757812 -7.28125 4.46875 -7.625 C 4.1875 -7.976562 3.800781 -8.15625 3.3125 -8.15625 C 3.03125 -8.15625 2.765625 -8.097656 2.515625 -7.984375 Z M 2.515625 -7.984375 "></path>
          </g>
        </g>
        <g style="fill:#ffffff;fill-opacity:1;">
          <g transform="translate(61.549164, 10.553417)">
            <path style="stroke:none" d=""></path>
          </g>
        </g>
        <g style="fill:#ffffff;fill-opacity:1;">
          <g transform="translate(63.94292, 10.553417)">
            <path style="stroke:none" d="M 1.578125 -1.21875 C 1.765625 -1.21875 1.921875 -1.148438 2.046875 -1.015625 C 2.179688 -0.890625 2.25 -0.734375 2.25 -0.546875 C 2.25 -0.347656 2.179688 -0.179688 2.046875 -0.046875 C 1.921875 0.0859375 1.765625 0.15625 1.578125 0.15625 C 1.390625 0.15625 1.222656 0.0859375 1.078125 -0.046875 C 0.941406 -0.191406 0.875 -0.359375 0.875 -0.546875 C 0.875 -0.722656 0.941406 -0.878906 1.078125 -1.015625 C 1.210938 -1.148438 1.378906 -1.21875 1.578125 -1.21875 Z M 1.578125 -1.21875 "></path>
          </g>
        </g>
        <g style="fill:#ffffff;fill-opacity:1;">
          <g transform="translate(67.0926, 10.553417)">
            <path style="stroke:none" d=""></path>
          </g>
        </g>
        <g style="fill:#ffffff;fill-opacity:1;">
          <g transform="translate(69.486356, 10.553417)">
            <path style="stroke:none" d="M 3.703125 -8.390625 C 3.398438 -8.390625 3.171875 -8.367188 3.015625 -8.328125 C 2.867188 -8.285156 2.757812 -8.1875 2.6875 -8.03125 C 2.613281 -7.875 2.578125 -7.628906 2.578125 -7.296875 L 2.578125 -1.109375 C 2.578125 -0.859375 2.613281 -0.691406 2.6875 -0.609375 C 2.769531 -0.523438 2.929688 -0.484375 3.171875 -0.484375 L 4.1875 -0.484375 C 4.644531 -0.484375 5 -0.535156 5.25 -0.640625 C 5.507812 -0.753906 5.710938 -0.9375 5.859375 -1.1875 C 6.003906 -1.4375 6.160156 -1.816406 6.328125 -2.328125 L 6.53125 -2.265625 L 5.90625 0 L 0.28125 0 L 0.28125 -0.21875 C 0.59375 -0.21875 0.820312 -0.238281 0.96875 -0.28125 C 1.125 -0.332031 1.234375 -0.429688 1.296875 -0.578125 C 1.367188 -0.734375 1.40625 -0.96875 1.40625 -1.28125 L 1.40625 -7.296875 C 1.40625 -7.628906 1.367188 -7.867188 1.296875 -8.015625 C 1.222656 -8.171875 1.109375 -8.269531 0.953125 -8.3125 C 0.804688 -8.363281 0.582031 -8.390625 0.28125 -8.390625 L 0.28125 -8.59375 L 3.703125 -8.59375 Z M 3.703125 -8.390625 "></path>
          </g>
        </g>
        <g style="fill:#ffffff;fill-opacity:1;">
          <g transform="translate(76.314852, 10.553417)">
            <path style="stroke:none" d="M 3.75 -8.78125 L 5.9375 -2 C 6.132812 -1.375 6.273438 -0.953125 6.359375 -0.734375 C 6.453125 -0.523438 6.554688 -0.382812 6.671875 -0.3125 C 6.796875 -0.25 6.992188 -0.21875 7.265625 -0.21875 L 7.265625 0 L 4.328125 0 L 4.328125 -0.21875 C 4.585938 -0.21875 4.773438 -0.253906 4.890625 -0.328125 C 5.003906 -0.398438 5.0625 -0.523438 5.0625 -0.703125 C 5.0625 -0.828125 5.019531 -1.019531 4.9375 -1.28125 L 4.453125 -2.75 L 2.28125 -2.75 L 1.8125 -1.15625 C 1.757812 -0.9375 1.734375 -0.785156 1.734375 -0.703125 C 1.734375 -0.515625 1.796875 -0.382812 1.921875 -0.3125 C 2.054688 -0.25 2.269531 -0.21875 2.5625 -0.21875 L 2.5625 0 L 0.234375 0 L 0.234375 -0.21875 C 0.554688 -0.21875 0.785156 -0.300781 0.921875 -0.46875 C 1.066406 -0.644531 1.210938 -0.972656 1.359375 -1.453125 L 3.5625 -8.78125 Z M 2.421875 -3.234375 L 4.296875 -3.234375 L 3.328125 -6.296875 L 3.296875 -6.296875 Z M 2.421875 -3.234375 "></path>
          </g>
        </g>
        <g style="fill:#ffffff;fill-opacity:1;">
          <g transform="translate(83.798485, 10.553417)">
            <path style="stroke:none" d="M 2.484375 -8.78125 C 2.753906 -8.78125 2.988281 -8.753906 3.1875 -8.703125 C 3.394531 -8.648438 3.601562 -8.578125 3.8125 -8.484375 C 3.988281 -8.398438 4.113281 -8.359375 4.1875 -8.359375 C 4.40625 -8.359375 4.554688 -8.5 4.640625 -8.78125 L 4.859375 -8.78125 L 4.859375 -5.984375 L 4.640625 -5.984375 C 4.617188 -6.503906 4.5 -6.9375 4.28125 -7.28125 C 4.0625 -7.632812 3.796875 -7.894531 3.484375 -8.0625 C 3.179688 -8.226562 2.890625 -8.3125 2.609375 -8.3125 C 2.253906 -8.3125 1.957031 -8.203125 1.71875 -7.984375 C 1.476562 -7.773438 1.359375 -7.503906 1.359375 -7.171875 C 1.359375 -6.867188 1.429688 -6.59375 1.578125 -6.34375 C 1.734375 -6.101562 1.953125 -5.875 2.234375 -5.65625 C 2.335938 -5.5625 2.632812 -5.347656 3.125 -5.015625 C 3.59375 -4.703125 3.957031 -4.4375 4.21875 -4.21875 C 4.488281 -4 4.710938 -3.75 4.890625 -3.46875 C 5.003906 -3.28125 5.09375 -3.066406 5.15625 -2.828125 C 5.226562 -2.597656 5.265625 -2.375 5.265625 -2.15625 C 5.265625 -1.71875 5.160156 -1.316406 4.953125 -0.953125 C 4.742188 -0.597656 4.457031 -0.316406 4.09375 -0.109375 C 3.738281 0.0859375 3.34375 0.1875 2.90625 0.1875 C 2.664062 0.1875 2.457031 0.160156 2.28125 0.109375 C 2.101562 0.0546875 1.90625 -0.0078125 1.6875 -0.09375 C 1.4375 -0.207031 1.253906 -0.265625 1.140625 -0.265625 C 0.890625 -0.265625 0.738281 -0.117188 0.6875 0.171875 L 0.453125 0.171875 L 0.453125 -2.71875 L 0.6875 -2.71875 C 0.71875 -2.1875 0.835938 -1.738281 1.046875 -1.375 C 1.253906 -1.007812 1.515625 -0.738281 1.828125 -0.5625 C 2.148438 -0.382812 2.476562 -0.296875 2.8125 -0.296875 C 3.195312 -0.296875 3.515625 -0.425781 3.765625 -0.6875 C 4.015625 -0.945312 4.140625 -1.28125 4.140625 -1.6875 C 4.140625 -2.195312 3.941406 -2.644531 3.546875 -3.03125 C 3.335938 -3.226562 2.972656 -3.503906 2.453125 -3.859375 C 1.921875 -4.234375 1.550781 -4.519531 1.34375 -4.71875 C 1.03125 -4.988281 0.789062 -5.273438 0.625 -5.578125 C 0.46875 -5.890625 0.390625 -6.238281 0.390625 -6.625 C 0.390625 -7.257812 0.582031 -7.773438 0.96875 -8.171875 C 1.351562 -8.578125 1.859375 -8.78125 2.484375 -8.78125 Z M 2.484375 -8.78125 "></path>
          </g>
        </g>
        <g style="fill:#ffffff;fill-opacity:1;">
          <g transform="translate(89.442709, 10.553417)">
            <path style="stroke:none" d="M 5.953125 -6.734375 L 5.71875 -6.734375 C 5.675781 -7.117188 5.601562 -7.410156 5.5 -7.609375 C 5.40625 -7.804688 5.265625 -7.941406 5.078125 -8.015625 C 4.890625 -8.085938 4.625 -8.125 4.28125 -8.125 L 2.46875 -8.125 L 2.46875 -4.75 L 3.890625 -4.75 C 4.210938 -4.75 4.457031 -4.796875 4.625 -4.890625 C 4.789062 -4.992188 4.898438 -5.132812 4.953125 -5.3125 C 5.015625 -5.5 5.046875 -5.742188 5.046875 -6.046875 L 5.265625 -6.046875 L 5.265625 -3.03125 L 5.046875 -3.03125 C 5.046875 -3.46875 4.984375 -3.785156 4.859375 -3.984375 C 4.734375 -4.179688 4.476562 -4.28125 4.09375 -4.28125 L 2.46875 -4.28125 L 2.46875 -1.140625 C 2.46875 -0.878906 2.503906 -0.703125 2.578125 -0.609375 C 2.648438 -0.523438 2.800781 -0.484375 3.03125 -0.484375 L 4.359375 -0.484375 C 4.898438 -0.484375 5.3125 -0.625 5.59375 -0.90625 C 5.875 -1.195312 6.113281 -1.628906 6.3125 -2.203125 L 6.515625 -2.140625 L 5.859375 0 L 0.1875 0 L 0.1875 -0.21875 C 0.488281 -0.21875 0.710938 -0.238281 0.859375 -0.28125 C 1.003906 -0.332031 1.109375 -0.429688 1.171875 -0.578125 C 1.242188 -0.734375 1.28125 -0.972656 1.28125 -1.296875 L 1.28125 -7.328125 C 1.28125 -7.628906 1.25 -7.851562 1.1875 -8 C 1.132812 -8.144531 1.035156 -8.242188 0.890625 -8.296875 C 0.753906 -8.359375 0.554688 -8.390625 0.296875 -8.390625 L 0.1875 -8.390625 L 0.1875 -8.59375 L 5.828125 -8.59375 Z M 5.953125 -6.734375 "></path>
          </g>
        </g>
        <g style="fill:#ffffff;fill-opacity:1;">
          <g transform="translate(96.271205, 10.553417)">
            <path style="stroke:none" d="M 6.3125 -6.4375 C 6.3125 -5.90625 6.125 -5.4375 5.75 -5.03125 C 5.382812 -4.625 4.878906 -4.359375 4.234375 -4.234375 L 6.28125 -0.90625 C 6.4375 -0.632812 6.578125 -0.453125 6.703125 -0.359375 C 6.828125 -0.265625 6.984375 -0.21875 7.171875 -0.21875 L 7.25 -0.21875 L 7.25 0 L 5.59375 0 L 3.109375 -4.078125 L 2.515625 -4.078125 L 2.515625 -1.28125 C 2.515625 -0.957031 2.546875 -0.722656 2.609375 -0.578125 C 2.679688 -0.429688 2.789062 -0.332031 2.9375 -0.28125 C 3.09375 -0.238281 3.320312 -0.21875 3.625 -0.21875 L 3.625 0 L 0.21875 0 L 0.21875 -0.21875 C 0.53125 -0.21875 0.757812 -0.238281 0.90625 -0.28125 C 1.0625 -0.332031 1.171875 -0.429688 1.234375 -0.578125 C 1.304688 -0.734375 1.34375 -0.96875 1.34375 -1.28125 L 1.34375 -7.296875 C 1.34375 -7.628906 1.304688 -7.867188 1.234375 -8.015625 C 1.160156 -8.171875 1.046875 -8.269531 0.890625 -8.3125 C 0.742188 -8.363281 0.519531 -8.390625 0.21875 -8.390625 L 0.21875 -8.59375 L 3.796875 -8.59375 C 4.265625 -8.59375 4.691406 -8.5 5.078125 -8.3125 C 5.460938 -8.132812 5.765625 -7.878906 5.984375 -7.546875 C 6.203125 -7.222656 6.3125 -6.851562 6.3125 -6.4375 Z M 2.515625 -7.984375 L 2.515625 -4.484375 L 2.9375 -4.484375 C 3.613281 -4.484375 4.109375 -4.664062 4.421875 -5.03125 C 4.742188 -5.394531 4.90625 -5.820312 4.90625 -6.3125 C 4.90625 -6.84375 4.757812 -7.28125 4.46875 -7.625 C 4.1875 -7.976562 3.800781 -8.15625 3.3125 -8.15625 C 3.03125 -8.15625 2.765625 -8.097656 2.515625 -7.984375 Z M 2.515625 -7.984375 "></path>
          </g>
        </g>
      </g>
    </g>
  </g>
</svg>