<svg width="24" height="24" viewBox="0 0 24 24" fill="none" xmlns="http://www.w3.org/2000/svg">
<g clip-path="url(#clip0_339_363)">
<path fill-rule="evenodd" clip-rule="evenodd" d="M24 8.44704C24 15.5205 19.3867 21.7668 12.6259 23.8471C12.2181 23.9726 11.7819 23.9726 11.3741 23.8471C4.61338 21.7668 0 15.5205 0 8.44704V2.57143C0 1.15127 1.15127 0 2.57143 0H21.4286C22.8487 0 24 1.15127 24 2.57143V8.44704Z" fill="#D4A380"/>
<path fill-rule="evenodd" clip-rule="evenodd" d="M10.4578 4.12793C9.98437 4.12793 9.60063 4.51169 9.60063 4.98507V7.89751H6.6882C6.21481 7.89751 5.83105 8.28127 5.83105 8.75465V11.8385C5.83105 12.3119 6.21481 12.6957 6.6882 12.6957H9.60063V15.6081C9.60063 16.0815 9.98437 16.4652 10.4578 16.4652H13.5416C14.015 16.4652 14.3988 16.0815 14.3988 15.6081V12.6957H17.3111C17.7846 12.6957 18.1683 12.3119 18.1683 11.8385V8.75465C18.1683 8.28127 17.7846 7.89751 17.3111 7.89751H14.3988V4.98507C14.3988 4.51169 14.015 4.12793 13.5416 4.12793H10.4578Z" fill="#FDF9F5"/>
</g>
<defs>
<clipPath id="clip0_339_363">
<rect width="24" height="24" fill="white"/>
</clipPath>
</defs>
</svg>
