<svg xmlns="http://www.w3.org/2000/svg" xmlns:xlink="http://www.w3.org/1999/xlink" width="1080" zoomAndPan="magnify" viewBox="0 0 810 809.999993" height="1080" preserveAspectRatio="xMidYMid meet" version="1.2"><defs><clipPath id="fd4ac7ed07"><path d="M 0 64.0625 L 810 64.0625 L 810 745.8125 L 0 745.8125 Z M 0 64.0625 "/></clipPath><clipPath id="238eb4d27d"><path d="M 19 9 L 797 9 L 797 681.8125 L 19 681.8125 Z M 19 9 "/></clipPath><clipPath id="7877ece495"><rect x="0" width="810" y="0" height="682"/></clipPath><clipPath id="dc980f5a4b"><path d="M 259 0.238281 L 306 0.238281 L 306 147 L 259 147 Z M 259 0.238281 "/></clipPath><clipPath id="c3f08f520f"><path d="M 314 0.238281 L 361 0.238281 L 361 147 L 314 147 Z M 314 0.238281 "/></clipPath><clipPath id="47c0f73bce"><rect x="0" width="537" y="0" height="207"/></clipPath></defs><g id="682d1cc166"><g clip-rule="nonzero" clip-path="url(#fd4ac7ed07)"><g transform="matrix(1,0,0,1,0,64)"><g clip-path="url(#7877ece495)"><g clip-rule="nonzero" clip-path="url(#238eb4d27d)"><path style=" stroke:none;fill-rule:nonzero;fill:#000000;fill-opacity:1;" d="M 38.234375 667.78125 C 90.527344 628.34375 129.578125 572.105469 149.613281 510.050781 C 139.28125 508.117188 129.066406 505.628906 118.988281 502.417969 C 92.433594 493.972656 66.578125 480.476562 48.359375 458.324219 C 17.871094 421.839844 24.621094 374.351562 48.519531 336.75 C 54.058594 327.769531 60.320312 319.347656 67.023438 311.363281 C 60.644531 304.40625 54.570312 297.078125 49.054688 289.238281 C 0.183594 220.339844 29.695312 157.820312 106.328125 132.96875 C 127.855469 125.804688 150.148438 122.035156 172.582031 120.125 C 174.328125 109.839844 177.027344 99.648438 180.890625 89.808594 C 195.320312 51.484375 229.109375 22.726562 269.441406 15.304688 C 319.730469 5.625 369.601562 22.355469 412.515625 47.390625 C 419.964844 42.226562 427.644531 37.339844 435.578125 32.894531 C 464.691406 16.933594 497.667969 6.042969 531.621094 11.09375 C 578.492188 17.863281 606.371094 56.441406 614.632812 100.324219 C 627.015625 100.882812 639.417969 101.882812 651.730469 103.605469 C 697.0625 110.492188 745.5625 126.59375 773.347656 165.453125 C 788.335938 186.441406 793.269531 213.804688 787.753906 238.863281 C 784.078125 256.617188 776.488281 273.089844 766.832031 288.121094 C 764.25 292.449219 760.640625 297.21875 757.730469 301.265625 C 755.195312 304.988281 752.308594 307.78125 748.796875 310.875 C 751.449219 312.667969 753.542969 314.203125 755.683594 316.25 C 756.871094 317.414062 758.941406 319.925781 760.246094 321.230469 C 761.875 322.90625 764.785156 326.328125 766.25 328.164062 C 792.964844 359.34375 809.652344 404.4375 782.773438 440.992188 C 759.941406 471.820312 721.660156 484.804688 685.566406 491.992188 C 675.488281 493.902344 665.34375 495.203125 655.171875 496.207031 C 651.820312 520.589844 642.957031 544.601562 627.199219 563.914062 C 573.699219 629.34375 478.796875 613.011719 413.191406 575.527344 C 404.859375 580.925781 396.296875 585.925781 387.429688 590.488281 C 355.128906 606.726562 319.058594 616.847656 282.195312 610.683594 C 256.128906 606.425781 235.089844 593.746094 219.59375 575.875 C 206.863281 587.066406 193.226562 597.210938 179.097656 606.332031 C 129.53125 638.976562 73.097656 657.777344 19.476562 681.90625 Z M 210.144531 563.378906 C 214.984375 558.632812 219.664062 553.699219 224.105469 548.605469 C 226.738281 553.1875 229.738281 557.539062 233.136719 561.566406 C 233.394531 561.867188 233.625 562.171875 233.882812 562.472656 C 261.503906 595.933594 309.210938 599.210938 348.730469 586.207031 C 369.71875 579.785156 389.476562 569.5 407.910156 557.46875 L 412.679688 554.375 L 417.496094 557.214844 C 458.480469 581.503906 508.140625 598.792969 555.777344 589.160156 C 591.128906 582.507812 620.566406 557.398438 633.089844 523.730469 C 638.183594 510.839844 640.835938 496.789062 642.398438 482.894531 C 667.625 481.40625 693.035156 478.265625 717.03125 470.378906 C 792.175781 445.855469 806.023438 390.3125 756.59375 330.304688 C 751.378906 324.09375 745.210938 317.785156 740.558594 311.25 C 744.421875 304.804688 749.609375 298.382812 753.9375 292.074219 C 807.464844 215.78125 776.375 148.769531 690.035156 123.824219 C 662.222656 115.613281 633.019531 112.867188 604.042969 112.585938 C 600.554688 90.996094 593.222656 69.308594 579.445312 52.929688 C 534.183594 0.132812 459.339844 30.519531 413.449219 66.980469 C 372.09375 41.898438 321.570312 23.050781 273.140625 33.105469 C 224.550781 42.898438 196.132812 82.875 190.992188 130.550781 L 190.015625 138.578125 C 175.609375 139.648438 160.785156 140.859375 146.660156 143.417969 C 113.9375 149.582031 78.355469 160.773438 57.457031 187.859375 C 28.132812 226.667969 59.0625 274.671875 88.546875 303.664062 L 95.507812 310.714844 L 88.875 318.113281 C 27.414062 385.101562 34.207031 453.371094 125.226562 482.917969 C 135.070312 486.082031 145.097656 488.503906 155.292969 490.34375 C 160.992188 491.390625 166.742188 492.25 172.488281 492.949219 C 170.488281 499.578125 168.253906 506.117188 165.835938 512.585938 L 165.8125 512.585938 C 158.921875 531.0625 150.40625 548.882812 140.46875 565.777344 C 119.941406 600.679688 93.226562 631.835938 61.832031 656.871094 C 114.542969 632.324219 168.90625 603.796875 210.144531 563.378906 Z M 210.144531 563.378906 "/></g></g></g></g><g transform="matrix(1,0,0,1,138,300)"><g clip-path="url(#47c0f73bce)"><g style="fill:#000000;fill-opacity:1;"><g transform="translate(0.92235, 146.540134)"><path style="stroke:none" d="M 69.90625 -136.34375 L 68.6875 -136.34375 C 61.894531 -136.34375 56.96875 -135.117188 53.90625 -132.671875 C 50.851562 -130.234375 49.328125 -125.820312 49.328125 -119.4375 L 49.328125 -77.859375 L 118.21875 -77.859375 L 118.21875 -119.640625 C 118.21875 -126.023438 116.648438 -130.40625 113.515625 -132.78125 C 110.390625 -135.15625 105.429688 -136.34375 98.640625 -136.34375 L 97.421875 -136.34375 L 97.421875 -140.015625 L 160.609375 -140.015625 L 160.609375 -136.34375 C 153.398438 -136.34375 148.195312 -135.1875 145 -132.875 C 141.8125 -130.570312 140.21875 -126.023438 140.21875 -119.234375 L 140.21875 -20.375 C 140.21875 -13.71875 141.8125 -9.269531 145 -7.03125 C 148.195312 -4.789062 153.398438 -3.671875 160.609375 -3.671875 L 160.609375 0 L 97.421875 0 L 97.421875 -3.671875 C 104.890625 -3.671875 110.222656 -4.789062 113.421875 -7.03125 C 116.617188 -9.269531 118.21875 -13.785156 118.21875 -20.578125 L 118.21875 -69.703125 L 49.328125 -69.703125 L 49.328125 -20.578125 C 49.328125 -13.785156 50.921875 -9.269531 54.109375 -7.03125 C 57.304688 -4.789062 62.570312 -3.671875 69.90625 -3.671875 L 69.90625 0 L 7.140625 0 L 7.140625 -3.671875 C 14.335938 -3.804688 19.5 -5.023438 22.625 -7.328125 C 25.75 -9.640625 27.3125 -14.054688 27.3125 -20.578125 L 27.3125 -119.640625 C 27.3125 -125.890625 25.75 -130.234375 22.625 -132.671875 C 19.5 -135.117188 14.675781 -136.34375 8.15625 -136.34375 L 7.140625 -136.34375 L 7.140625 -140.015625 L 69.90625 -140.015625 Z M 69.90625 -136.34375 "/></g></g><g style="fill:#000000;fill-opacity:1;"><g transform="translate(168.655087, 146.540134)"><path style="stroke:none" d="M 47.890625 -96.8125 C 58.492188 -96.8125 67.085938 -93.273438 73.671875 -86.203125 C 80.265625 -79.140625 83.5625 -69.972656 83.5625 -58.703125 L 19.5625 -58.703125 L 19.5625 -56.046875 C 19.5625 -48.847656 20.988281 -41.953125 23.84375 -35.359375 C 26.695312 -28.773438 30.703125 -23.441406 35.859375 -19.359375 C 41.023438 -15.285156 46.875 -13.25 53.40625 -13.25 C 66.3125 -13.25 75.34375 -20.453125 80.5 -34.859375 L 83.5625 -33.21875 C 81.382812 -22.082031 76.898438 -13.285156 70.109375 -6.828125 C 63.316406 -0.367188 55.164062 2.859375 45.65625 2.859375 C 38.59375 2.859375 32.035156 1.023438 25.984375 -2.640625 C 19.941406 -6.316406 15.050781 -11.820312 11.3125 -19.15625 C 7.570312 -26.5 5.703125 -35.398438 5.703125 -45.859375 C 5.703125 -55.910156 7.46875 -64.804688 11 -72.546875 C 14.539062 -80.296875 19.503906 -86.273438 25.890625 -90.484375 C 32.273438 -94.703125 39.609375 -96.8125 47.890625 -96.8125 Z M 42.1875 -89.671875 C 36.476562 -89.671875 31.550781 -87.425781 27.40625 -82.9375 C 23.269531 -78.457031 20.789062 -72.484375 19.96875 -65.015625 L 62.578125 -65.015625 C 62.296875 -72.347656 60.421875 -78.289062 56.953125 -82.84375 C 53.492188 -87.394531 48.570312 -89.671875 42.1875 -89.671875 Z M 42.1875 -89.671875 "/></g></g><g clip-rule="nonzero" clip-path="url(#dc980f5a4b)"><g style="fill:#000000;fill-opacity:1;"><g transform="translate(254.865139, 146.540134)"><path style="stroke:none" d="M 36.890625 -146.140625 L 36.890625 -21.40625 C 36.890625 -14.601562 37.875 -9.945312 39.84375 -7.4375 C 41.8125 -4.925781 45.378906 -3.671875 50.546875 -3.671875 L 50.546875 0 L 4.6875 0 L 4.6875 -3.671875 C 8.488281 -3.671875 11.476562 -4.078125 13.65625 -4.890625 C 15.832031 -5.703125 17.460938 -7.398438 18.546875 -9.984375 C 19.628906 -12.566406 20.171875 -16.375 20.171875 -21.40625 L 20.171875 -117.796875 C 20.171875 -126.898438 16.976562 -131.453125 10.59375 -131.453125 C 8.832031 -131.453125 7.269531 -131.113281 5.90625 -130.4375 L 4.6875 -133.90625 L 33.21875 -146.140625 Z M 36.890625 -146.140625 "/></g></g></g><g clip-rule="nonzero" clip-path="url(#c3f08f520f)"><g style="fill:#000000;fill-opacity:1;"><g transform="translate(310.096698, 146.540134)"><path style="stroke:none" d="M 36.890625 -146.140625 L 36.890625 -21.40625 C 36.890625 -14.601562 37.875 -9.945312 39.84375 -7.4375 C 41.8125 -4.925781 45.378906 -3.671875 50.546875 -3.671875 L 50.546875 0 L 4.6875 0 L 4.6875 -3.671875 C 8.488281 -3.671875 11.476562 -4.078125 13.65625 -4.890625 C 15.832031 -5.703125 17.460938 -7.398438 18.546875 -9.984375 C 19.628906 -12.566406 20.171875 -16.375 20.171875 -21.40625 L 20.171875 -117.796875 C 20.171875 -126.898438 16.976562 -131.453125 10.59375 -131.453125 C 8.832031 -131.453125 7.269531 -131.113281 5.90625 -130.4375 L 4.6875 -133.90625 L 33.21875 -146.140625 Z M 36.890625 -146.140625 "/></g></g></g><g style="fill:#000000;fill-opacity:1;"><g transform="translate(365.328257, 146.540134)"><path style="stroke:none" d="M 58.09375 -96.8125 C 66.101562 -96.8125 73.609375 -94.671875 80.609375 -90.390625 C 87.609375 -86.109375 93.175781 -80.398438 97.3125 -73.265625 C 101.457031 -66.140625 103.53125 -58.5 103.53125 -50.34375 C 103.53125 -40.832031 101.285156 -32 96.796875 -23.84375 C 92.316406 -15.695312 86.304688 -9.207031 78.765625 -4.375 C 71.234375 0.445312 63.1875 2.859375 54.625 2.859375 C 46.46875 2.859375 38.890625 0.71875 31.890625 -3.5625 C 24.898438 -7.84375 19.363281 -13.617188 15.28125 -20.890625 C 11.207031 -28.160156 9.171875 -36.078125 9.171875 -44.640625 C 9.171875 -53.878906 11.410156 -62.503906 15.890625 -70.515625 C 20.378906 -78.535156 26.394531 -84.921875 33.9375 -89.671875 C 41.476562 -94.429688 49.53125 -96.8125 58.09375 -96.8125 Z M 27.515625 -52.78125 C 27.515625 -44.769531 28.769531 -37.0625 31.28125 -29.65625 C 33.800781 -22.25 37.4375 -16.164062 42.1875 -11.40625 C 46.945312 -6.65625 52.65625 -4.28125 59.3125 -4.28125 C 67.050781 -4.28125 73.296875 -7.707031 78.046875 -14.5625 C 82.804688 -21.425781 85.1875 -30.5 85.1875 -41.78125 C 85.1875 -50.75 83.828125 -58.867188 81.109375 -66.140625 C 78.398438 -73.410156 74.597656 -79.148438 69.703125 -83.359375 C 64.804688 -87.566406 59.234375 -89.671875 52.984375 -89.671875 C 45.242188 -89.671875 39.0625 -86.34375 34.4375 -79.6875 C 29.820312 -73.03125 27.515625 -64.0625 27.515625 -52.78125 Z M 27.515625 -52.78125 "/></g></g><g style="fill:#000000;fill-opacity:1;"><g transform="translate(477.829436, 146.540134)"><path style="stroke:none" d="M 28.328125 -143.078125 C 31.722656 -143.078125 34.507812 -141.75 36.6875 -139.09375 C 38.863281 -136.445312 39.953125 -132.953125 39.953125 -128.609375 C 39.953125 -125.347656 39.609375 -121 38.921875 -115.5625 L 29.953125 -36.890625 L 26.296875 -36.890625 L 17.9375 -116.171875 L 17.53125 -120.453125 L 16.921875 -128.8125 C 16.921875 -132.75 18.039062 -136.109375 20.28125 -138.890625 C 22.519531 -141.679688 25.203125 -143.078125 28.328125 -143.078125 Z M 27.515625 -19.765625 C 30.640625 -19.765625 33.320312 -18.644531 35.5625 -16.40625 C 37.800781 -14.164062 38.921875 -11.484375 38.921875 -8.359375 C 38.921875 -5.234375 37.800781 -2.582031 35.5625 -0.40625 C 33.320312 1.769531 30.640625 2.859375 27.515625 2.859375 C 24.390625 2.859375 21.738281 1.738281 19.5625 -0.5 C 17.394531 -2.75 16.3125 -5.4375 16.3125 -8.5625 C 16.3125 -11.6875 17.429688 -14.332031 19.671875 -16.5 C 21.910156 -18.675781 24.523438 -19.765625 27.515625 -19.765625 Z M 27.515625 -19.765625 "/></g></g></g></g></g></svg>