<svg width="124" height="64" viewBox="0 0 124 64" fill="none" xmlns="http://www.w3.org/2000/svg">
<rect x="0.642075" y="21.422" width="98.1904" height="41.8031" rx="20.9015" fill="white" fill-opacity="0.1"/>
<rect x="0.642075" y="21.422" width="98.1904" height="41.8031" rx="20.9015" stroke="#171717" stroke-width="1.21848"/>
<path d="M34.5789 35.7029H36.8289V48.895H34.5789V43.3306H28.1088V48.895H25.8401V35.7029H28.1088V41.1926H34.5789V35.7029ZM48.9033 44.0402C48.9033 44.3265 48.8847 44.6066 48.8473 44.8804H40.9488C41.1231 45.5838 41.4903 46.147 42.0505 46.5703C42.6169 46.9873 43.2954 47.1958 44.0858 47.1958C44.6958 47.1958 45.2622 47.0682 45.785 46.813C46.3141 46.5578 46.7249 46.2373 47.0174 45.8514L48.4645 47.0931C47.9604 47.728 47.3193 48.2259 46.5413 48.5869C45.7695 48.9479 44.9323 49.1284 44.0298 49.1284C42.4862 49.1284 41.2009 48.6367 40.1739 47.6533C39.1532 46.6699 38.6428 45.4468 38.6428 43.9841C38.6428 43.0381 38.8668 42.1791 39.315 41.4073C39.7631 40.6293 40.3793 40.0193 41.1636 39.5774C41.954 39.1355 42.8285 38.9145 43.7871 38.9145C45.2497 38.9145 46.4666 39.4031 47.4375 40.3803C48.4147 41.3513 48.9033 42.5712 48.9033 44.0402ZM43.7684 40.8472C43.0775 40.8472 42.4738 41.0557 41.9572 41.4727C41.4468 41.8897 41.1044 42.4405 40.9302 43.1252H46.616C46.4541 42.4405 46.1118 41.8897 45.589 41.4727C45.0724 41.0557 44.4655 40.8472 43.7684 40.8472ZM50.4838 48.895V35.124H52.6311V48.895H50.4838ZM54.8838 48.895V35.124H57.0311V48.895H54.8838ZM63.9146 49.1284C62.427 49.1284 61.1853 48.6398 60.1894 47.6626C59.1935 46.6854 58.6956 45.4717 58.6956 44.0215C58.6956 42.5712 59.1935 41.3575 60.1894 40.3803C61.1853 39.4031 62.427 38.9145 63.9146 38.9145C64.8855 38.9145 65.7694 39.1386 66.5661 39.5868C67.369 40.0287 67.9976 40.6418 68.452 41.426C68.9064 42.204 69.1336 43.0692 69.1336 44.0215C69.1336 44.9738 68.9064 45.8421 68.452 46.6263C67.9976 47.4043 67.369 48.0174 66.5661 48.4656C65.7694 48.9075 64.8855 49.1284 63.9146 49.1284ZM61.7579 46.1875C62.3367 46.7663 63.0556 47.0558 63.9146 47.0558C64.7735 47.0558 65.4862 46.7663 66.0526 46.1875C66.6252 45.6024 66.9115 44.8804 66.9115 44.0215C66.9115 43.1563 66.6252 42.4343 66.0526 41.8555C65.4862 41.2704 64.7735 40.9779 63.9146 40.9779C63.0556 40.9779 62.3367 41.2704 61.7579 41.8555C61.179 42.4405 60.8896 43.1625 60.8896 44.0215C60.8896 44.8804 61.179 45.6024 61.7579 46.1875ZM71.0501 44.8991L70.9194 38.9519V35.7029H73.1881V38.9519L73.0574 44.8991H71.0501ZM72.0397 49.0444C71.6165 49.0444 71.2648 48.9044 70.9848 48.6243C70.7109 48.3442 70.574 47.9956 70.574 47.5786C70.574 47.1554 70.714 46.8037 70.9941 46.5236C71.2742 46.2435 71.6227 46.1035 72.0397 46.1035C72.4692 46.1035 72.824 46.2435 73.1041 46.5236C73.3904 46.8037 73.5336 47.1554 73.5336 47.5786C73.5336 48.0018 73.3904 48.3535 73.1041 48.6336C72.824 48.9075 72.4692 49.0444 72.0397 49.0444Z" fill="#171717"/>
<path d="M95.627 19.8568C95.627 16.9887 98.4951 11.2525 95.627 2.64819M102.797 23.2029C106.94 19.2195 115.417 9.53164 116.182 2.64819M105.665 29.8952C108.215 29.8952 115.034 28.5567 121.918 23.2029" stroke="#FEB273" stroke-width="3.82414" stroke-linecap="round" stroke-linejoin="round"/>
</svg>
