<?xml version="1.0" standalone="no"?>
<!DOCTYPE svg PUBLIC "-//W3C//DTD SVG 20010904//EN"
 "http://www.w3.org/TR/2001/REC-SVG-20010904/DTD/svg10.dtd">
<svg version="1.0" xmlns="http://www.w3.org/2000/svg"
 width="1446.000000pt" height="1446.000000pt" viewBox="0 0 1446.000000 1446.000000"
 preserveAspectRatio="xMidYMid meet">

<g transform="translate(0.000000,1446.000000) scale(0.100000,-0.100000)"
fill="currentColor" stroke="none">
<path d="M6960 14444 c-1448 -65 -2758 -511 -3914 -1331 -632 -449 -1227
-1041 -1677 -1669 -775 -1081 -1218 -2289 -1336 -3640 -22 -261 -22 -887 0
-1148 118 -1351 561 -2559 1336 -3640 372 -520 863 -1035 1366 -1435 1129
-898 2453 -1420 3921 -1548 261 -22 887 -22 1148 0 757 66 1447 228 2111 495
1169 470 2202 1243 2980 2228 738 934 1231 2030 1440 3199 81 452 108 770 108
1275 0 505 -27 823 -108 1275 -311 1741 -1256 3312 -2650 4404 -1124 881
-2451 1400 -3876 1516 -177 15 -694 26 -849 19z m770 -229 c501 -38 956 -118
1410 -246 1527 -433 2871 -1382 3795 -2679 606 -851 1008 -1809 1190 -2833
120 -678 139 -1400 54 -2092 -221 -1820 -1167 -3494 -2624 -4642 -997 -786
-2207 -1290 -3460 -1442 -563 -69 -1167 -69 -1730 0 -1933 235 -3701 1290
-4840 2889 -606 851 -1008 1809 -1190 2833 -120 680 -139 1395 -54 2092 220
1818 1167 3494 2624 4642 1090 859 2393 1365 3800 1477 239 19 784 20 1025 1z"/>
<path d="M1516 9958 c-3 -18 -19 -213 -36 -433 -17 -220 -33 -424 -36 -452
l-6 -53 93 0 94 0 38 118 c51 157 79 210 162 294 127 129 236 195 399 243 192
55 226 58 734 62 l473 5 -4 -2269 c-3 -2059 -5 -2277 -20 -2363 -20 -110 -64
-209 -107 -240 -85 -61 -235 -90 -460 -90 l-140 0 0 -121 0 -122 108 7 c584
36 1357 36 1935 0 l107 -7 0 122 0 121 -142 0 c-157 0 -297 19 -382 51 -70 26
-126 87 -150 163 -46 147 -46 103 -46 2494 l0 2252 413 0 c499 0 610 -11 815
-77 l82 -27 33 31 c17 16 103 94 190 172 86 79 157 145 157 147 0 2 -967 4
-2150 4 l-2149 0 -5 -32z"/>
<path d="M6865 9984 c-302 -24 -496 -69 -691 -159 -116 -54 -197 -109 -292
-199 -300 -285 -451 -662 -452 -1130 0 -332 77 -595 238 -813 181 -243 553
-467 1151 -694 105 -39 190 -74 187 -76 -2 -2 -63 -22 -135 -44 -265 -79 -602
-227 -811 -354 -278 -169 -469 -354 -570 -553 -100 -198 -90 -440 27 -650 134
-240 406 -495 669 -629 263 -135 512 -194 869 -209 704 -29 1298 224 1642 701
64 88 144 246 177 350 105 323 96 713 -22 1003 -61 149 -191 328 -321 442 -33
30 -59 55 -57 57 8 9 328 67 506 93 184 26 506 60 574 60 l26 0 0 -952 c0
-561 -4 -990 -10 -1043 -14 -127 -37 -217 -70 -269 -54 -84 -217 -136 -431
-136 l-99 0 0 -120 0 -120 1015 0 1015 0 0 120 0 120 -140 0 c-185 0 -326 21
-408 61 -94 46 -129 109 -157 284 -12 75 -15 260 -15 1093 l0 1002 360 0 c380
0 508 -8 628 -41 241 -64 388 -235 433 -502 l13 -77 89 0 89 0 -6 168 c-3 92
-9 290 -12 439 l-6 273 -794 -7 -794 -6 0 1137 0 1137 778 -4 c659 -3 793 -6
880 -20 316 -51 495 -121 627 -248 154 -147 246 -411 262 -746 l6 -133 95 0
95 0 -7 283 c-3 155 -9 470 -12 700 l-7 417 -3046 -2 c-1675 -1 -3064 -3
-3086 -4z m1500 -264 c605 -20 1029 -47 1091 -70 51 -20 88 -111 110 -270 11
-83 14 -291 14 -1011 l0 -906 -31 -7 c-17 -3 -55 -6 -83 -6 -89 0 -394 -30
-576 -56 -212 -30 -398 -64 -587 -109 l-141 -33 -104 52 c-132 66 -236 108
-768 311 -239 91 -491 193 -559 226 -354 170 -555 384 -633 674 -29 107 -32
389 -6 505 72 323 252 542 520 634 74 25 247 59 398 76 89 11 905 4 1355 -10z
m-716 -3080 c347 -177 500 -338 567 -597 32 -122 44 -371 24 -504 -54 -373
-299 -655 -665 -768 -118 -37 -214 -52 -365 -58 -277 -11 -504 41 -727 165
-87 48 -231 152 -281 202 -47 46 -103 137 -133 214 -15 39 -37 96 -50 126 -33
79 -33 246 0 340 64 184 233 363 493 524 176 108 417 219 788 362 146 57 190
70 209 63 13 -5 76 -36 140 -69z"/>
</g>
</svg>
